<?xml version="1.0" encoding="UTF-8" standalone="no"?>
<svg
   xmlns:dc="http://purl.org/dc/elements/1.1/"
   xmlns:cc="http://creativecommons.org/ns#"
   xmlns:rdf="http://www.w3.org/1999/02/22-rdf-syntax-ns#"
   xmlns:svg="http://www.w3.org/2000/svg"
   xmlns="http://www.w3.org/2000/svg"
   id="svg8"
   version="1.1"
   viewBox="0 0 508 508"
   height="508mm"
   width="508mm">
  <defs
     id="defs2" />
  <metadata
     id="metadata5">
    <rdf:RDF>
      <cc:Work
         rdf:about="">
        <dc:format>image/svg+xml</dc:format>
        <dc:type
           rdf:resource="http://purl.org/dc/dcmitype/StillImage" />
        <dc:title></dc:title>
      </cc:Work>
    </rdf:RDF>
  </metadata>
  <g
     transform="translate(216.95834,109.70237)"
     id="layer1">
    <g
       transform="translate(240.39286,24.946429)"
       id="g3797">
      <path
         id="path3811"
         d="m -457.3512,119.3512 v -254 h 254 254 v 254 254 h -254 -254 z m 269.08125,85.06354 0.13229,-51.59375 2.54773,-4.7625 c 1.40126,-2.61937 4.51088,-8.45344 6.91031,-12.96458 2.39942,-4.51115 6.80206,-12.78599 9.78365,-18.38854 2.98159,-5.60256 8.4296,-15.84193 12.10667,-22.75417 3.67708,-6.91224 8.14433,-15.306146 9.92722,-18.653125 2.93955,-5.518338 8.63021,-16.208634 17.46449,-32.808333 1.78125,-3.346979 6.15407,-11.562292 9.71738,-18.25625 3.5633,-6.693959 8.59292,-16.1594274 11.17698,-21.0343753 2.58402,-4.8749479 4.98676,-9.3695573 5.33942,-9.9880209 l 0.64116,-1.1244791 h -17.68819 -17.68818 l -26.75465,53.1151043 c -24.51033,48.659589 -31.36189,62.462489 -36.45137,73.433799 -1.461,3.14944 -1.91108,3.89926 -2.30286,3.83645 -0.36151,-0.058 -1.32672,-1.9865 -3.74683,-7.48639 -6.78678,-15.423451 -5.17833,-12.12671 -47.47207,-97.300526 l -12.71111,-25.5984373 h -18.93893 c -10.41642,0 -18.93894,0.060013 -18.93894,0.1333658 0,0.07335 1.86269,3.6154599 4.13931,7.87135421 2.27662,4.25589169 5.5333,10.35736329 7.23706,13.55882129 2.85229,5.359615 13.65206,25.592874 37.77764,70.776042 5.16711,9.677135 10.79064,20.21417 12.49673,23.41563 1.7061,3.20145 7.32657,13.73848 12.48995,23.41562 5.16338,9.67714 9.70355,18.18915 10.08926,18.91559 l 0.7013,1.32083 v 52.14707 c 0,28.68089 0.0803,52.22738 0.17845,52.32551 0.0982,0.0982 7.27166,0.14777 15.94114,0.11025 l 15.7627,-0.0682 z"
         style="fill:#fee5d5;stroke-width:0.26458332" />
      <path
         id="path3809"
         d="m -457.3512,119.3512 v -254 h 254 254 v 254 254 h -254 -254 z m 269.08125,85.46042 0.13229,-51.46146 0.76422,-1.45521 c 0.42035,-0.80036 3.11169,-5.86052 5.9808,-11.24479 2.86909,-5.38427 9.71511,-18.24302 15.21336,-28.575 5.49825,-10.33198 12.43695,-23.369325 15.41934,-28.971877 2.98238,-5.602552 7.38584,-13.877396 9.78545,-18.388541 2.39961,-4.511146 5.75815,-10.821459 7.46339,-14.022917 1.70527,-3.201458 5.79187,-10.88099 9.08135,-17.065625 3.28949,-6.184635 9.6011,-18.031354 14.0258,-26.3260417 4.42471,-8.29468747 7.99605,-15.1705468 7.93634,-15.2796875 -0.0597,-0.1091406 -8.07149,-0.1984375 -17.80395,-0.1984375 h -17.69536 l -6.46477,12.7661459 c -25.14106,49.6465148 -50.19947,99.7128508 -54.59224,109.0744808 -2.4135,5.14351 -4.11711,8.46666 -4.34043,8.46666 -0.22584,0 -1.47154,-2.49975 -3.23032,-6.48229 -6.63825,-15.03153 -5.88831,-13.48576 -36.32693,-74.87708 -5.66386,-11.423385 -13.45435,-27.080104 -17.3122,-34.7927083 l -7.01426,-14.0229167 -19.11615,-0.067887 c -12.04938,-0.042788 -19.11615,0.02577 -19.11615,0.1854544 0,0.1393375 5.13513,9.8734801 11.41139,21.6314286 6.27626,11.757948 16.59137,31.081681 22.92248,42.941629 16.00399,29.97999 30.64929,57.41699 41.43466,77.6251 l 9.16272,17.16778 v 52.30738 c 0,28.76905 0.0803,52.38766 0.17844,52.48582 0.0981,0.0981 7.33119,0.14775 16.07344,0.11023 l 15.895,-0.0682 z"
         style="fill:#fecbad;stroke-width:0.26458332" />
      <path
         id="path3807"
         d="m -457.3512,119.3512 v -254 h 254 254 v 254 254 h -254 -254 z m 269.34583,85.32812 0.13229,-51.59375 1.56179,-2.91041 c 0.85899,-1.60073 2.95428,-5.52979 4.65624,-8.73125 1.70193,-3.20146 6.10711,-11.4763 9.78927,-18.38854 3.68215,-6.91224 8.08789,-15.18709 9.79051,-18.38854 1.70259,-3.20146 8.60782,-16.179276 15.34488,-28.839588 6.73708,-12.660313 13.70563,-25.757188 15.48561,-29.104167 1.78001,-3.346979 6.12243,-11.50276 9.6498,-18.123958 6.47412,-12.152427 10.80678,-20.2947935 16.32165,-30.6732202 1.65714,-3.1185538 2.95267,-5.8272257 2.87898,-6.0192709 -0.10911,-0.2843768 -3.38849,-0.3484245 -17.67094,-0.3451251 -9.64533,0.00212 -17.67578,0.092366 -17.84543,0.2003028 -0.38828,0.247015 -1.51757,2.4710813 -30.59369,60.2529384 -22.22394,44.16475 -27.57149,54.952098 -32.5934,65.748958 -1.07232,2.30543 -2.0629,4.10104 -2.26241,4.10104 -0.20658,0 -1.22492,-1.99043 -2.43658,-4.7625 -1.14493,-2.61937 -3.51749,-7.91765 -5.27238,-11.77396 -4.54217,-9.981279 -55.78058,-113.2222747 -56.34095,-113.5221772 -0.58778,-0.3145711 -37.53449,-0.3285543 -38.03023,-0.014393 -0.36192,0.2293541 0.22115,1.3410671 27.14491,51.7563652 13.90186,26.031531 43.70411,81.871465 50.90608,95.381785 l 6.84025,12.83182 v 52.32387 52.32389 l 16.20573,-0.0682 16.20573,-0.0682 z"
         style="fill:#feb78b;stroke-width:0.26458332" />
      <path
         id="path3805"
         d="m -457.3512,119.3512 v -254 h 254 254 v 254 254 h -254 -254 z m 268.92732,137.15815 c 0.37965,-0.14568 0.41857,-4.93205 0.4191,-51.52761 v -51.367 l 4.7835,-8.99583 c 2.63091,-4.94771 6.36707,-11.9724 8.30255,-15.61042 1.93545,-3.63802 4.94392,-9.29349 6.68549,-12.56771 1.74154,-3.27422 6.17757,-11.60859 9.85779,-18.52083 3.68025,-6.91224 8.17984,-15.365677 9.99908,-18.785417 1.81925,-3.419739 4.22656,-7.944114 5.34956,-10.054166 1.123,-2.110052 3.53031,-6.634427 5.34956,-10.054167 1.81922,-3.41974 6.25549,-11.754115 9.85835,-18.520833 3.60283,-6.766719 8.07034,-15.160625 9.9278,-18.653125 1.85745,-3.4925 6.19233,-11.639119 9.63308,-18.1035963 3.44075,-6.46448 6.15659,-11.8529021 6.03523,-11.9742744 -0.12139,-0.1213723 -8.25061,-0.1900661 -18.06496,-0.152654 l -17.84366,0.068024 -2.57913,5.0270833 c -3.53772,6.8954676 -26.95599,53.3782064 -42.25565,83.8729174 -6.93595,13.824479 -14.194,28.528698 -16.12898,32.676038 -1.93499,4.14735 -3.70009,7.82861 -3.92245,8.18059 l -0.40429,0.63997 -0.3446,-0.65769 c -0.18952,-0.36172 -1.34982,-2.97142 -2.57842,-5.79934 -5.3959,-12.41983 -8.26997,-18.384257 -28.35904,-58.852068 -5.05676,-10.186459 -14.40943,-29.028099 -20.78369,-41.870313 L -267.07724,-8.44255 h -19.33385 c -16.99434,0 -19.33386,0.04794 -19.33386,0.3961871 0,0.2179029 2.78187,5.605481 6.18193,11.9723958 3.40006,6.3669151 11.86948,22.2323021 18.82094,35.2564171 6.95145,13.024115 15.91304,29.811927 19.91464,37.30625 4.00159,7.494323 12.93148,24.2226 19.84419,37.17396 6.91271,12.95135 14.27879,26.74958 16.36906,30.66275 l 3.80049,7.1148 v 52.29738 c 0,40.32295 0.0727,52.37007 0.3175,52.61486 0.23979,0.23979 4.15209,0.3175 15.98565,0.3175 8.61749,0 15.85648,-0.0723 16.08667,-0.1606 z"
         style="fill:#fea872;stroke-width:0.26458332" />
      <path
         id="path3803"
         d="m -457.3512,119.3512 v -254 h 254 254 v 254 254 h -254 -254 z m 269.44981,136.90023 c 0.0883,-0.23019 0.16087,-23.47714 0.16119,-51.65989 v -51.24138 l 4.78351,-8.99583 c 2.63091,-4.94771 6.36706,-11.9724 8.30254,-15.61042 1.93546,-3.63802 4.94393,-9.29349 6.68549,-12.56771 1.74154,-3.27422 6.17758,-11.60859 9.8578,-18.520833 3.68025,-6.91224 8.14784,-15.306146 9.92801,-18.653125 1.78017,-3.346979 8.62391,-16.205729 15.2083,-28.575 6.5844,-12.369271 13.55463,-25.466146 15.48943,-29.104167 1.93476,-3.638021 6.20675,-11.6686806 9.49325,-17.845913 3.28713,-6.1772297 5.97609,-11.3862141 5.97609,-11.5755208 0,-0.2791804 -3.42001,-0.3441912 -18.10666,-0.3441912 h -18.10665 l -7.79039,15.4119792 c -4.28469,8.4765888 -11.92705,23.6272918 -16.98297,33.6682288 -5.05593,10.040938 -13.45658,26.709688 -18.66813,37.041667 -8.82415,17.493967 -15.3492,30.798215 -19.69176,40.150525 -0.99666,2.14643 -1.89663,3.9026 -1.99994,3.9026 -0.10331,0 -1.26516,-2.47055 -2.58189,-5.4901 -4.06598,-9.32423 -8.73662,-19.27948 -14.80285,-31.551567 -16.4785,-33.336283 -45.89461,-92.483937 -46.146,-92.7868479 -0.23224,-0.2798313 -4.02238,-0.3464851 -19.70203,-0.3464851 -13.12205,0 -19.41448,0.088175 -19.41448,0.2720552 0,0.1496298 1.82999,3.6917392 4.06666,7.87135413 2.23666,4.17961497 10.70586,20.04133067 18.82044,35.24825767 8.11458,15.206927 17.52035,32.828177 20.9017,39.158333 3.38136,6.330156 12.31179,23.058437 19.84541,37.17396 7.53363,14.11552 15.43716,28.87927 17.56341,32.80833 l 3.86592,7.14375 0.0658,52.3875 c 0.0362,28.81313 0.12176,52.53633 0.19013,52.71823 0.0976,0.25964 3.61736,0.33073 16.37618,0.33073 14.57552,0 16.26843,-0.0432 16.41246,-0.41852 z"
         style="fill:#fe914c;stroke-width:0.26458332" />
      <path
         id="path3801"
         d="m -457.3512,119.3512 v -254 h 254 254 v 254 254 h -254 -254 z m 269.09863,137.30944 c 0.50329,-0.26935 0.51179,-1.12618 0.51179,-51.60034 v -51.32647 l 0.96017,-1.91164 c 0.52811,-1.05138 1.76194,-3.3999 2.74185,-5.21891 0.97988,-1.81901 3.33068,-6.22432 5.22399,-9.78958 5.14178,-9.68255 18.40267,-34.60273 26.36393,-49.543809 1.80263,-3.383041 6.22215,-11.687389 9.82114,-18.454108 8.33896,-15.678668 16.49201,-31.000745 21.96286,-41.275 6.45988,-12.131611 17.12626,-32.1875094 18.12803,-34.0859768 0.73242,-1.3880492 0.8188,-1.7155187 0.50488,-1.9141784 -0.21635,-0.136906 -7.98992,-0.2413953 -18.13095,-0.2437104 -16.58112,-0.00378 -17.77859,0.026495 -18.15205,0.4589701 -0.37793,0.4376446 -4.90472,9.3536109 -24.75085,48.7494795 -4.65505,9.240573 -12.93572,25.671198 -18.40145,36.5125 -9.23589,18.319416 -15.48818,31.063433 -19.89275,40.547393 -0.99686,2.14643 -1.89449,3.90261 -1.99475,3.90261 -0.10025,0 -1.2745,-2.50061 -2.60943,-5.55691 -4.13638,-9.47015 -8.71697,-19.215809 -15.047,-32.013927 -26.59176,-53.763537 -45.66511,-91.996392 -46.03359,-92.2751517 -0.34534,-0.2612469 -4.54949,-0.3179101 -19.63136,-0.2645833 -17.42567,0.061616 -19.19949,0.1071986 -19.27422,0.4953079 -0.0453,0.2350982 4.10632,8.27181695 9.22574,17.859375 5.11943,9.5875611 13.97908,26.1830211 19.68813,36.8788021 5.70904,10.695782 15.08324,28.2575 20.83156,39.026042 5.74831,10.768542 15.65929,29.342295 22.02438,41.274995 6.3651,11.93271 11.91746,22.30565 12.33857,23.05095 l 0.76567,1.35515 0.004,52.35527 c 0.002,28.79543 0.0915,52.48627 0.19844,52.64637 0.10692,0.16007 0.37298,0.35904 0.59126,0.44212 0.7516,0.28609 31.49129,0.20833 32.03197,-0.081 z"
         style="fill:#fe8235;stroke-width:0.26458332" />
      <path
         id="path3799"
         d="m -457.3512,119.3512 v -254 h 254 254 v 254 254 h -254 -254 z m 269.875,85.59271 0.13229,-51.85834 5.38999,-10.05416 c 4.51688,-8.4255 14.6372,-27.4192 32.7066,-61.383335 1.78064,-3.346979 7.73655,-14.538854 13.23536,-24.870833 5.49881,-10.331979 11.48627,-21.583386 13.3055,-25.003125 1.81919,-3.41974 4.63811,-8.718021 6.26424,-11.773959 1.62616,-3.055937 5.66399,-10.6452667 8.97298,-16.8651763 3.30898,-6.2199097 5.94219,-11.4288941 5.85158,-11.5755209 -0.10811,-0.1749239 -6.47375,-0.2665941 -18.51234,-0.2665941 h -18.34756 l -10.9101,21.6296873 c -23.79966,47.183807 -48.20058,96.037436 -50.94124,101.990646 -1.5895,3.45269 -2.95428,6.28043 -3.03282,6.28386 -0.0786,0.003 -0.60469,-1.0951 -1.1692,-2.44117 -4.30501,-10.26519 -9.64319,-21.519126 -22.43351,-47.294273 -5.88523,-11.859948 -17.16494,-34.600886 -25.06603,-50.535417 -7.90108,-15.9345312 -14.48259,-29.1207031 -14.62557,-29.3026042 -0.20381,-0.259289 -4.51081,-0.3307291 -19.93902,-0.3307291 -18.48632,0 -19.67907,0.027771 -19.67907,0.4581763 0,0.2519971 4.0345,8.02082521 8.96555,17.2640625 8.68407,16.2782435 17.19563,32.2239565 41.1712,77.1308865 6.29312,11.787187 16.14593,30.241878 21.89515,41.010418 5.74922,10.76854 11.06305,20.72015 11.80853,22.11472 l 1.35541,2.53556 v 52.38752 c 0,28.81315 0.0803,52.4678 0.17836,52.56591 0.0981,0.0981 7.6288,0.14769 16.73489,0.11025 l 16.55654,-0.0681 z"
         style="fill:#fe6400;stroke-width:0.26458332" />
    </g>
  </g>
</svg>
