<?xml version="1.0" encoding="UTF-8" standalone="no"?>
<svg
   xmlns:dc="http://purl.org/dc/elements/1.1/"
   xmlns:cc="http://creativecommons.org/ns#"
   xmlns:rdf="http://www.w3.org/1999/02/22-rdf-syntax-ns#"
   xmlns:svg="http://www.w3.org/2000/svg"
   xmlns="http://www.w3.org/2000/svg"
   id="svg8"
   version="1.1"
   viewBox="0 0 105.83334 105.83334"
   height="105.83334mm"
   width="105.83334mm">
  <defs
     id="defs2" />
  <metadata
     id="metadata5">
    <rdf:RDF>
      <cc:Work
         rdf:about="">
        <dc:format>image/svg+xml</dc:format>
        <dc:type
           rdf:resource="http://purl.org/dc/dcmitype/StillImage" />
        <dc:title></dc:title>
      </cc:Work>
    </rdf:RDF>
  </metadata>
  <g
     transform="translate(-51.404752,-55.851189)"
     id="layer1">
    <g
       transform="translate(-24.946437,-15.875)"
       id="g75">
      <path
         id="path91"
         d="M 76.351189,124.64286 V 71.726189 h 52.916671 52.91667 v 52.916671 52.91667 H 129.26786 76.351189 Z"
         style="fill:#fdfdfd;stroke-width:0.26458335" />
      <path
         id="path89"
         d="M 76.351189,124.64286 V 71.726189 h 52.916671 52.91667 v 52.916671 52.91667 H 129.26786 76.351189 Z m 57.017711,38.86625 c 5.78774,-0.70632 10.15703,-3.10419 12.61051,-6.92066 2.08848,-3.24869 3.04655,-6.89737 8.00622,-30.49038 4.74053,-22.55058 5.26902,-25.54665 5.13672,-29.120615 -0.0911,-2.462426 -0.1792,-2.839622 -1.09575,-4.694141 -1.15182,-2.330532 -2.381,-3.478233 -4.99417,-4.663101 -3.83792,-1.740195 -8.34582,-2.129373 -24.70636,-2.13296 l -12.45117,-0.0027 -8.14035,38.695317 c -4.47719,21.28242 -8.198828,38.90367 -8.270307,39.15833 -0.122733,0.43727 0.750367,0.46298 15.696727,0.46228 9.86916,-5.3e-4 16.72304,-0.11013 18.20793,-0.29134 z m -11.40904,-12.79267 c -0.13644,-0.35556 10.29447,-50.60257 10.78166,-51.936603 0.18806,-0.514938 0.40583,-0.595115 1.61302,-0.593837 2.81347,0.003 4.51227,0.96097 4.76567,2.68748 0.20176,1.37468 -0.40688,4.6588 -4.30712,23.24021 -4.57644,21.80299 -5.19404,24.08303 -6.9159,25.53188 -1.45635,1.22544 -5.5918,1.97132 -5.93733,1.07087 z"
         style="fill:#f3cfd1;stroke-width:0.26458335" />
      <path
         id="path87"
         d="M 76.351189,124.64286 V 71.726189 h 52.916671 52.91667 v 52.916671 52.91667 H 129.26786 76.351189 Z m 56.627781,39.14906 c 6.57426,-0.80303 10.85937,-3.19865 13.46755,-7.52914 1.97131,-3.27306 2.85553,-6.71199 7.92602,-30.82617 4.48697,-21.33913 5.15059,-25.12694 5.01148,-28.604683 -0.0918,-2.294272 -0.19794,-2.737904 -1.08465,-4.53203 -1.15094,-2.328767 -2.49019,-3.648052 -4.78949,-4.718086 -4.21129,-1.959822 -7.09211,-2.227662 -23.9715,-2.228714 l -13.88468,-8.65e-4 -8.11992,38.496878 c -4.46595,21.17328 -8.194722,38.88383 -8.286157,39.35677 l -0.166244,0.8599 h 15.827781 c 9.28871,0 16.75405,-0.11314 18.06981,-0.27386 z m -10.72656,-13.26717 c -0.15661,-0.40812 10.26641,-50.44388 10.7312,-51.515152 0.25903,-0.597038 0.36969,-0.623245 2.10688,-0.498949 3.27448,0.234289 4.16055,1.411468 3.67943,4.888241 -0.39913,2.88425 -7.80444,37.99604 -8.60166,40.78417 -1.04747,3.66335 -1.86408,5.08575 -3.34018,5.81805 -1.55558,0.77174 -4.35743,1.09237 -4.57567,0.52364 z"
         style="fill:#e8a1a4;stroke-width:0.26458335" />
      <path
         id="path85"
         d="M 76.351189,124.64286 V 71.726189 h 52.916671 52.91667 v 52.916671 52.91667 H 129.26786 76.351189 Z m 55.562501,39.41604 c 8.63329,-0.75738 13.49719,-4.01954 16.10713,-10.80282 1.17549,-3.05514 2.5908,-9.08148 6.51232,-27.72935 4.59245,-21.83832 4.98895,-24.0485 5.00007,-27.871373 0.007,-2.546625 -0.0872,-3.279966 -0.57997,-4.497917 -1.29548,-3.201698 -3.52799,-5.236021 -7.0635,-6.436451 -3.91861,-1.330504 -9.91763,-1.74906 -25.20724,-1.758728 l -10.91974,-0.0069 -0.24535,0.595312 C 115.1844,86.358634 99.094947,162.98474 99.100751,163.73505 l 0.0046,0.59531 14.882809,-0.002 c 8.18555,-0.001 16.25203,-0.12238 17.92552,-0.2692 z m -9.44783,-13.6674 c -0.21337,-0.55603 10.44832,-51.186737 10.86954,-51.617754 0.25369,-0.259591 0.75027,-0.277601 2.16571,-0.07855 1.54367,0.217088 1.95257,0.387493 2.56415,1.068599 1.21728,1.355685 1.39846,0.142494 -3.53777,23.688435 -4.65625,22.21037 -5.14446,24.07657 -6.70751,25.63961 -1.22285,1.22286 -5.02905,2.14677 -5.35412,1.29966 z"
         style="fill:#e07d81;stroke-width:0.26458335" />
      <path
         id="path83"
         d="M 76.351189,124.64286 V 71.726189 h 52.916671 52.91667 v 52.916671 52.91667 H 129.26786 76.351189 Z m 57.725731,39.29847 c 7.9309,-1.19549 12.19804,-4.75644 14.59389,-12.17868 1.0776,-3.33834 1.84331,-6.62538 4.82142,-20.69742 5.53213,-26.14013 6.20258,-29.76767 6.20266,-33.560288 6e-5,-2.935037 -0.4592,-4.580046 -1.86749,-6.688972 -1.91039,-2.860833 -4.87374,-4.370194 -10.30329,-5.247917 -2.36301,-0.381996 -4.9704,-0.451441 -17.44967,-0.464753 l -14.67155,-0.01565 -8.26854,39.15833 c -4.54769,21.53709 -8.274169,39.3667 -8.281055,39.62136 -0.0118,0.43613 0.936521,0.46293 16.325505,0.46146 12.96345,-0.001 16.8668,-0.0813 18.89812,-0.38747 z M 122.5475,150.35035 c -0.0998,-0.1615 9.4531,-46.32898 10.56868,-51.07646 0.14092,-0.599736 0.22854,-0.623969 1.79989,-0.497837 3.23746,0.259874 3.9505,1.165434 3.55106,4.509857 -0.27133,2.27186 -7.34648,36.02451 -8.39182,40.03398 -0.91162,3.49658 -1.65846,5.17857 -2.68173,6.03958 -1.05006,0.88357 -4.47908,1.5847 -4.84608,0.99088 z"
         style="fill:#d95d62;stroke-width:0.26458335" />
      <path
         id="path81"
         d="M 76.351189,124.64286 V 71.726189 h 52.916671 52.91667 v 52.916671 52.91667 H 129.26786 76.351189 Z m 58.737501,39.34965 c 7.16538,-1.49067 11.08883,-4.75501 13.36136,-11.11674 1.22447,-3.42781 2.11952,-7.1882 5.30301,-22.27979 6.45244,-30.58827 6.76517,-32.536527 5.81085,-36.200396 -1.44973,-5.565887 -5.26114,-8.138592 -13.6273,-9.198435 -2.86977,-0.363548 -30.1209,-0.653812 -30.45037,-0.324341 -0.33682,0.336818 -16.88572,78.948512 -16.714007,79.395982 0.216783,0.56493 33.489667,0.31181 36.316457,-0.27628 z m -12.44545,-13.8835 c -0.006,-0.10914 2.39739,-11.65821 5.33979,-25.66459 l 5.34982,-25.466146 h 1.41559 c 0.77857,0 1.82924,0.172834 2.33481,0.384077 1.33995,0.559869 1.57667,1.374099 1.19601,4.113839 -0.4338,3.12221 -7.7882,38.00106 -8.61253,40.84565 -1.10836,3.82473 -1.84266,4.92032 -3.75479,5.60227 -1.08689,0.38764 -3.25225,0.51012 -3.2687,0.1849 z"
         style="fill:#d23c42;stroke-width:0.26458335" />
      <path
         id="path79"
         d="M 76.351189,124.64286 V 71.726189 h 52.916671 52.91667 v 52.916671 52.91667 H 129.26786 76.351189 Z m 57.943751,39.6013 c 5.8254,-0.96808 9.58502,-3.10992 12.12506,-6.90759 2.43262,-3.63707 3.24753,-6.62164 8.096,-29.651 4.04556,-19.21578 4.77991,-22.95366 5.31002,-27.02836 0.5167,-3.97164 0.2716,-5.991059 -1.05824,-8.719117 -2.09235,-4.292268 -5.94307,-6.192765 -14.15409,-6.985644 -3.38947,-0.327298 -27.00893,-0.680402 -28.37465,-0.424193 -0.85216,0.159868 -1.01274,0.311275 -1.23585,1.165317 -0.55321,2.117516 -16.427,77.789467 -16.427,78.309127 0,0.30439 0.20836,0.61421 0.463021,0.68848 0.254662,0.0743 7.725839,0.0981 16.602609,0.0529 13.17588,-0.0671 16.60114,-0.15889 18.65312,-0.49989 z m -11.43565,-14.1098 c -0.0666,-0.12309 2.29607,-11.65379 5.25042,-25.62379 2.95436,-13.97 5.37604,-25.42977 5.38152,-25.46615 0.0236,-0.15662 1.81694,-0.03332 2.78809,0.191691 1.69059,0.391707 2.07506,1.086519 1.90697,3.446329 -0.0777,1.09141 -1.70625,9.42578 -3.61891,18.52084 -4.33801,20.62794 -4.37991,20.81745 -5.20564,23.54791 -1.00434,3.32107 -1.5211,4.19307 -2.82261,4.76292 -1.30074,0.56953 -3.50609,0.94124 -3.67984,0.62025 z"
         style="fill:#ce2b31;stroke-width:0.26458335" />
      <path
         id="path77"
         d="M 76.351189,124.64286 V 71.726189 h 52.916671 52.91667 v 52.916671 52.91667 H 129.26786 76.351189 Z m 59.134381,39.61789 c 6.11063,-1.3558 9.91823,-4.10511 12.17897,-8.79393 1.92616,-3.99489 2.26266,-5.33102 6.99654,-27.78125 5.09504,-24.16304 5.55854,-26.67772 5.56147,-30.173062 0.005,-5.65925 -2.81072,-9.560733 -8.22008,-11.39085 -3.76834,-1.274917 -6.63032,-1.484272 -22.16576,-1.621425 -8.10596,-0.07156 -14.48156,-0.0255 -14.61263,0.105564 -0.34437,0.344371 -16.976178,79.441503 -16.800489,79.899343 0.22673,0.59085 34.310489,0.36609 37.061979,-0.24439 z m -12.48113,-14.79144 c 0.14245,-0.56754 9.54221,-45.19719 10.28599,-48.83739 l 0.28381,-1.389063 h 1.26917 c 1.63268,0 2.48736,0.335386 3.05244,1.197803 0.40705,0.62124 0.42013,0.91424 0.12746,2.85608 -0.50308,3.33788 -7.84998,38.10601 -8.62002,40.793 -1.28922,4.49862 -2.28027,5.61638 -5.23107,5.89992 -1.30321,0.12522 -1.32713,0.11456 -1.16778,-0.52035 z"
         style="fill:#cc1f26;stroke-width:0.26458335" />
    </g>
  </g>
</svg>
