<?xml version="1.0" encoding="UTF-8" standalone="no"?>
<svg
   xmlns:dc="http://purl.org/dc/elements/1.1/"
   xmlns:cc="http://creativecommons.org/ns#"
   xmlns:rdf="http://www.w3.org/1999/02/22-rdf-syntax-ns#"
   xmlns:svg="http://www.w3.org/2000/svg"
   xmlns="http://www.w3.org/2000/svg"
   viewBox="0 0 933.33331 809.33331"
   height="809.33331"
   width="933.33331"
   id="svg2"
   version="1.1">
  <metadata
     id="metadata8">
    <rdf:RDF>
      <cc:Work
         rdf:about="">
        <dc:format>image/svg+xml</dc:format>
        <dc:type
           rdf:resource="http://purl.org/dc/dcmitype/StillImage" />
        <dc:title></dc:title>
      </cc:Work>
    </rdf:RDF>
  </metadata>
  <defs
     id="defs6" />
  <g
     transform="translate(428.29376,371.17514)"
     id="g41">
    <path
       id="path57"
       d="M -428.29376,33.491515 V -371.17514 H 38.372895 505.03955 V 33.491515 438.15817 H 38.372895 -428.29376 Z"
       style="fill:#fefdfd;stroke-width:1.33333325" />
    <path
       id="path55"
       d="M 10.014616,423.5103 C -68.113409,415.934 -139.99421,387.18437 -200.58146,339.27979 -218.18173,325.36376 -250.16602,293.37947 -264.08204,275.7792 -307.68948,220.62678 -334.72711,157.89119 -345.80446,86.15818 -348.34521,69.705154 -348.79,61.461514 -348.79,30.824848 c 0,-30.63666537 0.44479,-38.8803051 2.98554,-55.333331 11.07735,-71.733012 38.11498,-134.468597 81.72242,-189.621017 13.91602,-17.60027 45.90031,-49.58456 63.50058,-63.50059 55.15243,-43.60743 117.888011,-70.64506 189.621023,-81.72241 16.4530262,-2.54076 24.696666,-2.98555 55.333332,-2.98555 30.636666,0 38.880306,0.44479 55.333332,2.98555 71.733013,11.07735 134.468593,38.11498 189.621023,81.72241 17.60026,13.91603 49.58456,45.90032 63.50058,63.50059 43.60743,55.15242 70.64507,117.888005 81.72242,189.621017 2.54076,16.4530259 2.98554,24.69666563 2.98554,55.333331 0,30.636666 -0.44478,38.880306 -2.98554,55.333332 -11.07735,71.73301 -38.11499,134.4686 -81.72242,189.62102 -13.91602,17.60027 -45.90032,49.58456 -63.50058,63.50059 -55.00737,43.49273 -118.69206,70.97546 -188.95436,81.54205 -21.054889,3.1664 -70.315501,4.63206 -90.358274,2.68846 z M 96.372894,396.97126 C 178.81928,384.48457 248.36245,349.71821 305.81435,292.26631 364.06558,234.0151 398.73933,163.80408 411.22257,78.824847 c 3.28438,-22.358373 3.28438,-73.6416245 0,-95.999997 -12.48324,-84.97924 -47.15699,-155.19025 -105.40822,-213.44146 -58.25121,-58.25122 -128.46222,-92.92498 -213.441456,-105.40821 -22.358373,-3.28439 -73.641625,-3.28439 -95.9999979,0 -47.2151051,6.93578 -85.4445711,19.10371 -124.6063161,39.66051 -95.31796,50.03437 -166.75353,143.80335 -188.60363,247.568134 -6.52752,30.998799 -7.99009,45.5732787 -7.99009,79.621024 0,34.047746 1.46257,48.622226 7.99009,79.621022 21.8501,103.76479 93.28567,197.53377 188.60363,247.56813 45.648638,23.96192 88.499264,36.19046 147.272982,42.0282 13.321733,1.32318 60.757679,-0.56051 77.333332,-3.07094 z M -172.88483,303.19483 c -1.84087,-2.6282 -2.0756,-16.39415 -2.0756,-121.72255 V 62.713074 l -7.88764,-3.620506 c -10.1255,-4.647694 -19.34382,-13.64836 -23.8709,-23.307266 l -3.5748,-7.62712 -0.38713,-56.946199 c -0.3794,-55.807105 -0.33272,-57.000611 2.33333,-59.666664 2.6592,-2.6592 4.0957,-2.720467 63.7835,-2.720467 h 61.063008 l 4.603653,-7 c 3.088827,-4.696682 6.892293,-8.316182 11.55908,-11.000002 l 6.955426,-4 0.04453,-8.37616 c 0.05213,-9.81033 2.178773,-15.51241 7.731493,-20.73068 4.06856,-3.8235 12.415786,-6.61502 15.845226,-5.29904 1.031387,0.39579 2.479693,1.84903 3.218453,3.22942 2.020814,3.77592 -0.464813,7.13566 -6.650213,8.98885 -6.62648,1.98535 -8.100399,4.5622 -8.100399,14.16197 0,7.03396 0.253253,7.61931 4.220266,9.75432 6.639133,3.57314 13.970106,10.57459 16.371906,15.635989 l 2.1996,4.635333 H 47.084188 119.6704 l 1.81407,-4.333333 c 1.96668,-4.697879 9.92808,-12.310549 16.66812,-15.937989 3.96701,-2.13501 4.22026,-2.72036 4.22026,-9.75432 0,-9.59977 -1.47392,-12.17662 -8.1004,-14.16197 -6.1854,-1.85319 -8.67102,-5.21293 -6.65021,-8.98885 0.73876,-1.38039 2.10987,-2.80108 3.04691,-3.15711 6.19466,-2.35356 18.4674,5.04903 21.86934,13.19103 1.0089,2.41462 1.85442,8.1595 1.87892,12.76638 l 0.0445,8.37616 6.95542,4 c 4.66679,2.68382 8.47026,6.30332 11.55908,11.000002 l 4.60365,7 h 61.06302 c 59.6878,0 61.12429,0.06133 63.78349,2.720467 2.66605,2.666053 2.71273,3.859559 2.33333,59.666664 l -0.38705,56.946199 -3.90003,7.943213 c -4.9324,10.04584 -13.43901,18.352119 -23.54566,22.991173 l -7.88764,3.620506 V 181.47228 c 0,105.3284 -0.23474,119.09435 -2.0756,121.72255 l -2.07562,2.96334 H 47.039561 -170.80922 Z M 19.706229,-102.2036 c -1.833333,-1.00756 -4.654813,-2.66485 -6.269947,-3.68288 -2.59668,-1.63669 -3.543773,-1.50972 -8.1815462,1.09685 -9.3498797,5.254936 -19.4219998,3.54726 -27.1303458,-4.59981 -7.099293,-7.50335 -7.018133,-6.60285 -7.475627,-82.95164 l -0.426426,-71.16594 3.5142,-7.18277 3.5142,-7.18277 -3.403854,-4.04525 c -7.052373,-8.38127 -7.07288,-19.44236 -0.05147,-27.7868 6.289466,-7.4746 9.394279,-7.88676 71.530624,-9.49554 55.154273,-1.42801 57.137473,-1.39304 62.789533,1.10714 13.59758,6.01485 17.19787,23.1055 7.25335,34.43169 l -4.20579,4.79013 11.57642,10.61382 c 13.71073,12.57065 26.83722,28.4704 31.16468,37.74889 2.94753,6.3198 3.10998,8.13591 3.12233,34.90476 0.0107,23.90508 -0.30848,28.5596 -2.08221,30.33333 -1.15238,1.15239 -2.87611,2.09524 -3.83051,2.09524 -0.9544,0 -4.57916,1.25799 -8.05503,2.79552 -5.67606,2.5108 -12.61929,2.77611 -19.35256,0.73947 -0.36666,-0.11093 -0.96666,9.44371 -1.33333,21.23248 -0.63692,20.4776 -0.82637,21.67531 -4.24536,26.83847 -4.18111,6.31405 -12.90504,11.06073 -20.328537,11.06073 -2.934933,0 -7.74844,-1.46037 -11.44504,-3.47231 l -6.379786,-3.47232 -4.048454,2.99315 c -2.41276,1.78384 -6.721986,3.25005 -10.665693,3.62899 -5.434106,0.52214 -7.809386,-0.0133 -13.284879,-2.99315 l -6.66764,-3.62899 -4.09268,3.02586 c -5.044387,3.72948 -16.595693,4.923702 -21.508626,2.22365 z"
       style="fill:#fbd8ac;stroke-width:1.33333325" />
    <path
       id="path53"
       d="M 23.706229,422.70608 C -24.73757,418.53514 -56.258236,411.99537 -91.857982,398.7293 -220.44043,350.81369 -316.37825,237.38296 -340.90923,104.26703 c -5.0132,-27.203783 -6.5697,-44.603849 -6.5697,-73.442182 0,-28.8383321 1.5565,-46.238398 6.5697,-73.442184 28.78659,-156.208724 155.63121,-283.053354 311.83994,-311.839944 27.203786,-5.01319 44.603852,-6.5697 73.442185,-6.5697 28.838332,0 46.238399,1.55651 73.442185,6.5697 156.20873,28.78659 283.05335,155.63122 311.83994,311.839944 5.0132,27.203786 6.56971,44.6038519 6.56971,73.442184 0,79.606522 -21.07355,149.742942 -65.10075,216.666662 -63.46544,96.47089 -168.44236,160.52754 -283.952913,173.26734 -14.2766,1.57459 -53.732439,2.78516 -63.464838,1.94723 z m 73.333331,-23.837 c 82.01314,-12.81524 153.153,-48.50711 210.01173,-105.36584 57.22377,-57.22377 92.6198,-128.08073 105.57572,-211.34506 1.85474,-11.920013 2.38586,-23.347199 2.38586,-51.333332 0,-27.9861321 -0.53112,-39.4133185 -2.38586,-51.333331 C 399.66134,-103.83545 364.34509,-174.50551 307.02417,-231.82642 249.70325,-289.14734 179.0332,-324.46359 95.706227,-337.42926 c -21.834413,-3.39743 -80.832251,-3.39743 -102.6666642,0 -83.3269708,12.96567 -153.9970228,48.28192 -211.3179428,105.60284 -56.95785,56.95786 -92.78063,128.35118 -105.36324,209.984603 -2.98507,19.366573 -4.08297,64.775958 -2.08324,86.163571 14.36458,153.632666 120.12748,281.246116 268.478544,323.946016 17.357693,4.99607 45.252052,10.46235 63.6192118,12.46705 17.3285462,1.89135 74.0987982,0.72312 90.6666642,-1.86574 z m -268.74515,-94.60312 c -2.52015,-1.84248 -2.6057,-5.04971 -3.25484,-122.0291 l -0.66667,-120.136879 -7.33333,-3.38268 c -12.60655,-5.81508 -21.926,-16.58976 -25.8876,-29.929906 -1.77583,-5.97984 -2.10915,-15.625533 -2.09199,-60.537878 0.0107,-29.383573 0.46123,-54.084839 1,-54.891732 2.83493,-4.245693 7.07821,-4.533026 67.22527,-4.552146 l 60.420981,-0.0192 3.656814,-6.630494 c 2.765106,-5.013665 5.447413,-7.641035 10.999999,-10.774735 l 7.343187,-4.14425 v -8.25687 c 0,-14.84521 8.71336,-26.15524 20.150266,-26.15524 9.376226,0 9.253346,9.26795 -0.150267,11.33334 -5.876733,1.29074 -7.999999,5.25738 -7.999999,14.94545 0,8.16151 0.09893,8.39353 4.333333,10.16793 6.35312,2.66222 12.752053,8.50683 15.752226,14.387669 l 2.635307,5.165613 h 72.612464 72.612469 l 2.6353,-5.165613 c 3.00018,-5.880839 9.39911,-11.725449 15.75223,-14.387669 4.23445,-1.7744 4.33333,-2.00642 4.33333,-10.16793 0,-9.6274 -2.12317,-13.65468 -7.8634,-14.91545 -9.85913,-2.16543 -10.09133,-11.36334 -0.28686,-11.36334 11.4369,0 20.15026,11.31003 20.15026,26.15524 v 8.25687 l 7.34319,4.14424 c 5.55259,3.13369 8.23489,5.76107 11,10.774732 l 3.65681,6.630493 60.82019,0.0192 c 59.49637,0.0188 60.89665,0.07933 64.33333,2.782654 l 3.51315,2.763439 v 53.661226 c 0,45.085745 -0.33758,54.797971 -2.1124,60.774438 -3.9616,13.340173 -13.28111,24.114879 -25.8876,29.929852 l -7.33334,3.382627 -0.66666,120.136999 c -0.64915,116.97951 -0.7347,120.18671 -3.25484,122.02914 -3.89176,2.84519 -433.59867,2.84513 -437.49031,-5e-5 z"
       style="fill:#bdbcbb;stroke-width:1.33333325" />
    <path
       id="path51"
       d="M 23.706229,422.70608 C -24.73757,418.53514 -56.258236,411.99537 -91.857982,398.7293 -220.44043,350.81369 -316.37825,237.38296 -340.90923,104.26703 c -5.0132,-27.203783 -6.5697,-44.603849 -6.5697,-73.442182 0,-28.8383321 1.5565,-46.238398 6.5697,-73.442184 28.78659,-156.208724 155.63121,-283.053354 311.83994,-311.839944 27.203786,-5.01319 44.603852,-6.5697 73.442185,-6.5697 28.838332,0 46.238399,1.55651 73.442185,6.5697 156.20873,28.78659 283.05335,155.63122 311.83994,311.839944 5.0132,27.203786 6.56971,44.6038519 6.56971,73.442184 0,79.606522 -21.07355,149.742942 -65.10075,216.666662 -63.46544,96.47089 -168.44236,160.52754 -283.952913,173.26734 -14.2766,1.57459 -53.732439,2.78516 -63.464838,1.94723 z m 73.333331,-23.837 c 82.01314,-12.81524 153.153,-48.50711 210.01173,-105.36584 57.22377,-57.22377 92.6198,-128.08073 105.57572,-211.34506 1.85474,-11.920013 2.38586,-23.347199 2.38586,-51.333332 0,-27.9861321 -0.53112,-39.4133185 -2.38586,-51.333331 C 399.66134,-103.83545 364.34509,-174.50551 307.02417,-231.82642 249.70325,-289.14734 179.0332,-324.46359 95.706227,-337.42926 c -21.834413,-3.39743 -80.832251,-3.39743 -102.6666642,0 -83.3269708,12.96567 -153.9970228,48.28192 -211.3179428,105.60284 -56.95785,56.95786 -92.78063,128.35118 -105.36324,209.984603 -2.98507,19.366573 -4.08297,64.775958 -2.08324,86.163571 14.36458,153.632666 120.12748,281.246116 268.478544,323.946016 17.357693,4.99607 45.252052,10.46235 63.6192118,12.46705 17.3285462,1.89135 74.0987982,0.72312 90.6666642,-1.86574 z m -266.99999,-95.48437 c -2.19482,-1.27836 -2.33334,-8.46902 -2.33334,-121.12953 0,-94.232493 -0.35537,-120.048346 -1.66666,-121.073612 -0.91667,-0.716734 -3.60963,-1.956534 -5.98438,-2.75512 -6.99416,-2.35204 -15.97246,-9.240573 -20.36498,-15.624907 -8.72514,-12.681533 -8.60778,-11.690039 -8.63024,-72.908664 -0.0149,-40.549479 0.39989,-56.019292 1.53237,-57.152772 2.24357,-2.245546 506.65087,-2.245546 508.89444,0 1.13248,1.13348 1.54726,16.603293 1.53238,57.152772 -0.0224,61.218625 0.0949,60.227131 -8.63024,72.908664 -4.39252,6.384334 -13.37083,13.272867 -20.36499,15.624907 -2.37475,0.798586 -5.06771,2.038386 -5.98437,2.75512 -1.3113,1.02528 -1.66667,26.844985 -1.66667,121.092952 0,117.06808 -0.0585,119.82119 -2.57901,121.17008 -3.56178,1.9062 -430.47994,1.84725 -433.75431,-0.0599 z M 216.614,269.34191 c 3.55958,-0.95467 5.00036,-4.21792 2.95197,-6.68607 -2.10164,-2.5323 -342.39719,-2.76021 -344.9264,-0.231 -2.46855,2.46855 -1.90454,5.03019 1.4,6.35845 3.27057,1.3146 335.72241,1.85991 340.57443,0.55862 z M 69.348668,137.10035 c 10.425333,-5.13237 19.822399,-14.73188 24.784146,-25.31808 3.5366,-7.54556 3.577706,-7.97088 3.989946,-41.290756 L 98.539307,36.824848 H 47.039561 -4.4601839 l 0.4165466,33.666666 c 0.4114534,33.255956 0.4598,33.758976 3.96374659,41.233536 6.25854651,13.35066 18.30926671,24.05564 32.16750571,28.57525 3.507093,1.14377 9.94132,1.68583 17.121053,1.44236 9.77288,-0.3314 12.801226,-1.02944 20.14,-4.64231 z M 36.372895,113.6017 c -8.68788,-3.87791 -14,-12.52029 -14,-22.776853 0,-14.580053 10.086613,-24.666666 24.666666,-24.666666 14.580053,0 24.666667,10.086613 24.666667,24.666666 0,14.726093 -10.14896,24.735683 -24.957173,24.614483 -3.506893,-0.0287 -8.17616,-0.85564 -10.37616,-1.83763 z M -16.587384,38.824848 c 0.282334,-8.072666 0.911734,-11.071973 2.588174,-12.333333 2.73272,-2.05612 118.47213,-2.403293 121.70544,-0.365066 1.41428,0.891533 2.19524,4.497453 2.66666,12.312906 l 0.66667,11.05216 75.81638,0.344413 c 49.18576,0.223427 77.61746,-0.140573 80.94394,-1.036293 7.72834,-2.081027 15.97401,-9.09508 20.19836,-17.181413 l 3.73933,-7.15788 -0.34901,-50.817745 -0.349,-50.817745 H 47.039561 -196.96043 l -0.349,50.817745 -0.34902,50.817745 3.68235,7.0388 c 2.02528,3.871333 5.85883,8.798786 8.519,10.949879 9.55955,7.730174 8.28524,7.62856 91.829998,7.322947 l 76.666665,-0.280453 z"
       style="fill:#f7c765;stroke-width:1.33333325" />
    <path
       id="path49"
       d="M 19.706229,420.78757 C -75.936475,414.51702 -164.06394,374.61496 -231.74058,306.93832 -326.72562,211.95328 -366.00304,76.59778 -336.77887,-55.038389 c 12.54493,-56.506881 39.25768,-111.983821 76.46557,-158.803421 6.11926,-7.7 18.97698,-21.85107 28.57272,-31.44681 152.744078,-152.74408 399.48287,-152.74408 552.22695,0 94.98504,94.98503 134.26246,230.340536 105.03829,361.97671 -12.54493,56.50687 -39.25768,111.98382 -76.46557,158.80342 -14.26279,17.94721 -42.10398,45.78434 -60.01953,60.0108 -59.77247,47.46431 -129.21769,76.01266 -204,83.86266 -19.388852,2.03527 -46.863585,2.63352 -65.333331,1.4226 z m 67.256278,-19.31273 c 47.056483,-5.5045 85.572423,-17.28302 128.253553,-39.22111 36.71354,-18.87074 62.30115,-37.66777 92.55068,-67.98904 30.66215,-30.73489 49.22148,-55.99441 68.03504,-92.59667 28.58437,-55.61167 41.23777,-108.033173 41.23777,-170.843172 0,-62.809998 -12.6534,-115.231503 -41.23777,-170.843168 -17.81592,-34.66133 -36.46865,-60.48633 -64.75892,-89.65968 -51.27916,-52.87986 -119.60841,-90.46799 -190.57846,-104.83781 -48.921959,-9.90557 -103.261051,-9.90557 -152.18301,0 -94.12377,19.05792 -180.2647,77.43938 -234.84425,159.16416 -11.7367,17.57398 -28.47697,49.49454 -36.31231,69.2408 -25.99598,65.513794 -32.48669,141.937218 -18.09259,213.0272 11.09299,54.78639 37.78218,111.61067 73.54014,156.57516 11.75476,14.78124 44.73735,47.78948 59.13385,59.17985 54.57651,43.18039 120.002161,70.42882 189.26666593,78.82566 20.05109307,2.43076 65.11938507,2.41914 85.98961107,-0.0221 z M -169.96043,303.38471 c -2.19482,-1.27836 -2.33334,-8.46902 -2.33334,-121.12953 0,-94.232493 -0.35537,-120.048346 -1.66666,-121.073612 -0.91667,-0.716734 -3.60963,-1.956534 -5.98438,-2.75512 -6.99416,-2.35204 -15.97246,-9.240573 -20.36498,-15.624907 -8.72514,-12.681533 -8.60778,-11.690039 -8.63024,-72.908664 -0.0149,-40.549479 0.39989,-56.019292 1.53237,-57.152772 2.24357,-2.245546 506.65087,-2.245546 508.89444,0 1.13248,1.13348 1.54726,16.603293 1.53238,57.152772 -0.0224,61.218625 0.0949,60.227131 -8.63024,72.908664 -4.39252,6.384334 -13.37083,13.272867 -20.36499,15.624907 -2.37475,0.798586 -5.06771,2.038386 -5.98437,2.75512 -1.3113,1.02528 -1.66667,26.844985 -1.66667,121.092952 0,117.06808 -0.0585,119.82119 -2.57901,121.17008 -3.56178,1.9062 -430.47994,1.84725 -433.75431,-0.0599 z M 216.614,269.34191 c 3.55958,-0.95467 5.00036,-4.21792 2.95197,-6.68607 -2.10164,-2.5323 -342.39719,-2.76021 -344.9264,-0.231 -2.46855,2.46855 -1.90454,5.03019 1.4,6.35845 3.27057,1.3146 335.72241,1.85991 340.57443,0.55862 z M 69.348668,137.10035 c 10.425333,-5.13237 19.822399,-14.73188 24.784146,-25.31808 3.5366,-7.54556 3.577706,-7.97088 3.989946,-41.290756 L 98.539307,36.824848 H 47.039561 -4.4601839 l 0.4165466,33.666666 c 0.4114534,33.255956 0.4598,33.758976 3.96374659,41.233536 6.25854651,13.35066 18.30926671,24.05564 32.16750571,28.57525 3.507093,1.14377 9.94132,1.68583 17.121053,1.44236 9.77288,-0.3314 12.801226,-1.02944 20.14,-4.64231 z M 37.706228,112.13801 C 21.952269,103.64275 18.860909,85.454727 31.208682,73.909674 47.558281,58.622928 73.538521,72.800847 69.929534,95.04038 c -0.977133,6.0214 -3.6,9.99819 -9.625386,14.59396 -6.01056,4.58448 -16.56972,5.75436 -22.59792,2.50367 z M -16.587384,38.824848 c 0.282334,-8.072666 0.911734,-11.071973 2.588174,-12.333333 2.73272,-2.05612 118.47213,-2.403293 121.70544,-0.365066 1.41428,0.891533 2.19524,4.497453 2.66666,12.312906 l 0.66667,11.05216 75.81638,0.344413 c 49.18576,0.223427 77.61746,-0.140573 80.94394,-1.036293 7.72834,-2.081027 15.97401,-9.09508 20.19836,-17.181413 l 3.73933,-7.15788 -0.34901,-50.817745 -0.349,-50.817745 H 47.039561 -196.96043 l -0.349,50.817745 -0.34902,50.817745 3.68235,7.0388 c 2.02528,3.871333 5.85883,8.798786 8.519,10.949879 9.55955,7.730174 8.28524,7.62856 91.829998,7.322947 l 76.666665,-0.280453 z"
       style="fill:#f5b632;stroke-width:1.33333325" />
    <path
       id="path47"
       d="m -169.96043,303.38471 c -2.19482,-1.27836 -2.33334,-8.46902 -2.33334,-121.12953 0,-94.232493 -0.35537,-120.048346 -1.66666,-121.073612 -0.91667,-0.716734 -3.60963,-1.956534 -5.98438,-2.75512 -6.99416,-2.35204 -15.97246,-9.240573 -20.36498,-15.624907 -8.72514,-12.681533 -8.60778,-11.690039 -8.63024,-72.908664 -0.0149,-40.549479 0.39989,-56.019292 1.53237,-57.152772 2.24357,-2.245546 506.65087,-2.245546 508.89444,0 1.13248,1.13348 1.54726,16.603293 1.53238,57.152772 -0.0224,61.218625 0.0949,60.227131 -8.63024,72.908664 -4.39252,6.384334 -13.37083,13.272867 -20.36499,15.624907 -2.37475,0.798586 -5.06771,2.038386 -5.98437,2.75512 -1.3113,1.02528 -1.66667,26.844985 -1.66667,121.092952 0,117.06808 -0.0585,119.82119 -2.57901,121.17008 -3.56178,1.9062 -430.47994,1.84725 -433.75431,-0.0599 z M 216.614,269.34191 c 3.55958,-0.95467 5.00036,-4.21792 2.95197,-6.68607 -2.10164,-2.5323 -342.39719,-2.76021 -344.9264,-0.231 -2.46855,2.46855 -1.90454,5.03019 1.4,6.35845 3.27057,1.3146 335.72241,1.85991 340.57443,0.55862 z M 69.348668,137.10035 c 10.425333,-5.13237 19.822399,-14.73188 24.784146,-25.31808 3.5366,-7.54556 3.577706,-7.97088 3.989946,-41.290756 L 98.539307,36.824848 H 47.039561 -4.4601839 l 0.4165466,33.666666 c 0.4114534,33.255956 0.4598,33.758976 3.96374659,41.233536 6.25854651,13.35066 18.30926671,24.05564 32.16750571,28.57525 3.507093,1.14377 9.94132,1.68583 17.121053,1.44236 9.77288,-0.3314 12.801226,-1.02944 20.14,-4.64231 z M -16.587384,38.824848 c 0.282334,-8.072666 0.911734,-11.071973 2.588174,-12.333333 2.73272,-2.05612 118.47213,-2.403293 121.70544,-0.365066 1.41428,0.891533 2.19524,4.497453 2.66666,12.312906 l 0.66667,11.05216 75.81638,0.344413 c 49.18576,0.223427 77.61746,-0.140573 80.94394,-1.036293 7.72834,-2.081027 15.97401,-9.09508 20.19836,-17.181413 l 3.73933,-7.15788 -0.34901,-50.817745 -0.349,-50.817745 H 47.039561 -196.96043 l -0.349,50.817745 -0.34902,50.817745 3.68235,7.0388 c 2.02528,3.871333 5.85883,8.798786 8.519,10.949879 9.55955,7.730174 8.28524,7.62856 91.829998,7.322947 l 76.666665,-0.280453 z"
       style="fill:#857460;stroke-width:1.33333325" />
    <path
       id="path45"
       d="m -169.29377,302.60847 c -1.31588,-0.53098 -1.66666,-25.74272 -1.66666,-119.78569 0,-65.51224 -0.35236,-120.031413 -0.78303,-121.153706 -0.43067,-1.122306 -3.88067,-3.068133 -7.66667,-4.324066 -5.02156,-1.665814 -9.07605,-4.479587 -14.98845,-10.40184 -13.29659,-13.318733 -13.06883,-12.040853 -13.58752,-76.232371 -0.38819,-48.039452 -0.19019,-54.990265 1.60897,-56.483425 1.64847,-1.368107 51.49042,-1.702694 253.642291,-1.702694 243.861479,0 251.646659,0.07627 253.412859,2.483414 1.4875,2.027293 1.74143,12.401639 1.38254,56.483425 -0.51542,63.308771 -0.30759,62.154278 -13.58286,75.451651 -5.9124,5.922253 -9.96689,8.736026 -14.98845,10.40184 -3.786,1.255933 -7.236,3.20176 -7.66667,4.324066 -0.43066,1.122293 -0.78302,55.627276 -0.78302,121.122166 0,107.35688 -0.20766,119.16132 -2.10906,119.89095 -2.5232,0.96824 -429.82263,0.89536 -432.22427,-0.0737 z m 389.57142,-33.2122 c 2.49536,-2.49536 2.70973,-6.09027 0.49524,-8.30476 -2.32429,-2.32429 -345.14236,-2.32429 -347.46666,0 -2.21449,2.21449 -2.00012,5.8094 0.49524,8.30476 1.883,1.883 19.43146,2.09524 173.238091,2.09524 153.806639,0 171.355089,-0.21224 173.238089,-2.09524 z M 69.750668,138.86715 C 85.24004,131.29993 96.965547,115.60941 99.725253,98.756646 101.13863,90.12558 101.54407,41.024341 100.23024,37.600568 99.511213,35.726795 93.564187,35.491515 46.922308,35.491515 H -5.5763039 l -0.8367333,3.333813 c -0.4602,1.8336 -0.57452,16.6836 -0.25404,32.999999 0.52556,26.757173 0.8760933,30.418243 3.5748399,37.335643 5.6788265,14.55592 18.1910663,26.76438 32.7984663,32.00218 5.057706,1.81356 9.734413,2.29396 19.377772,1.99056 10.848427,-0.3413 13.876907,-0.96946 20.666667,-4.28656 z M -15.25405,40.158181 c 0.282333,-8.072666 0.911733,-11.071973 2.588173,-12.333333 1.69232,-1.273319 15.7834662,-1.666666 59.705438,-1.666666 43.921973,0 58.013119,0.393347 59.705439,1.666666 1.67644,1.26136 2.30584,4.260667 2.58817,12.333333 l 0.37306,10.666667 h 79.99999 c 89.8148,0 83.47667,0.684333 93.9891,-10.148 9.39541,-9.681333 9.45725,-10.145306 9.04462,-67.851998 l -0.36705,-51.333332 H 47.039561 -198.29377 l -0.34925,51.953919 -0.34927,51.953932 3.41988,6.989959 c 3.72463,7.61288 11.29164,14.46276 19.04588,17.240907 3.87544,1.388466 21.20154,1.696746 82.899428,1.474973 l 77.999998,-0.28036 z"
       style="fill:#76634d;stroke-width:1.33333325" />
    <path
       id="path43"
       d="m -169.94279,301.82484 c -0.17364,-0.18333 -0.62364,-54.81425 -1,-121.40204 l -0.68431,-121.068699 -7.89892,-3.210173 c -9.71951,-3.95008 -19.48799,-13.238533 -23.69424,-22.529893 -3.02711,-6.686693 -3.07939,-7.621413 -3.46288,-61.918372 -0.28597,-40.487918 0.0229,-55.626038 1.16325,-56.999998 2.33368,-2.81192 502.78522,-2.81192 505.1189,0 1.14028,1.37396 1.44923,16.51208 1.16325,56.999998 -0.38349,54.296959 -0.43577,55.231679 -3.46288,61.918372 -4.20625,9.29136 -13.97473,18.579813 -23.69424,22.529893 l -7.89892,3.210173 -0.6843,121.068699 c -0.37636,66.58779 -0.82636,121.21871 -1,121.40204 -0.41282,0.43588 -433.5519,0.43588 -433.96471,0 z m 388.85831,-30.28617 c 4.48798,-1.70634 5.90538,-7.27215 2.74208,-10.76755 -2.32523,-2.56934 -5.2386,-2.61294 -174.618039,-2.61294 -169.379431,0 -172.292811,0.0436 -174.618031,2.61294 -3.01956,3.33656 -1.77924,9.04228 2.3246,10.6936 4.12713,1.66068 339.80624,1.73281 344.16939,0.074 z M 62.464228,142.70717 c 14.532586,-4.24956 27.054319,-15.12207 34.224652,-29.717 l 3.68401,-7.49866 V 70.158181 34.824848 H 47.039561 -6.2937705 v 35.333333 35.333329 l 3.6293065,7.38303 c 12.3350531,25.09291 39.221346,37.40834 65.128692,29.83263 z M -14.324944,49.824848 c 0.377454,-1.65 0.83888,-7.2 1.0254,-12.333333 l 0.339107,-9.333333 h 59.999998 59.999999 l 0.33911,9.333333 c 0.18652,5.133333 0.64794,10.683333 1.0254,12.333333 l 0.68629,3 h 77.48657 c 53.73045,0 79.02784,-0.461774 82.51379,-1.506187 7.85176,-2.35244 17.37081,-10.338413 21.20465,-17.789546 l 3.41085,-6.629066 V -26.470883 -79.841815 H 47.039561 -199.6271 v 53.999998 53.999999 l 3.64903,6.20732 c 4.19805,7.141279 11.90396,13.705146 19.25621,16.402386 4.143,1.519893 19.72363,1.886613 83.402692,1.963013 l 78.307931,0.09395 z"
       style="fill:#61492d;stroke-width:1.33333325" />
  </g>
</svg>
