<?xml version="1.0" standalone="no"?>
<!DOCTYPE svg PUBLIC "-//W3C//DTD SVG 20010904//EN"
 "http://www.w3.org/TR/2001/REC-SVG-20010904/DTD/svg10.dtd">
<svg version="1.0" xmlns="http://www.w3.org/2000/svg"
 width="3889.000000pt" height="3372.000000pt" viewBox="0 0 3889.000000 3372.000000"
 preserveAspectRatio="xMidYMid meet">

<g transform="translate(0.000000,3372.000000) scale(0.100000,-0.100000)"
fill="#000000" stroke="none">
<path d="M0 16860 l0 -16860 19445 0 19445 0 0 16860 0 16860 -19445 0 -19445
0 0 -16860z m37650 60 l0 -16760 -17960 0 -17960 0 0 16760 0 16760 17960 0
17960 0 0 -16760z"/>
<path d="M15710 25000 c-69 -11 -190 -50 -190 -62 0 -5 -4 -6 -10 -3 -5 3 -10
1 -10 -4 0 -6 -5 -11 -11 -11 -14 0 -151 -80 -165 -97 -6 -7 -29 -27 -50 -44
-94 -74 -235 -300 -289 -464 -29 -87 -63 -259 -58 -287 3 -17 1 -28 -6 -28 -8
0 -11 -75 -11 -260 l0 -260 -2335 0 -2335 0 0 -515 0 -515 -242 -1 c-187 0
-1142 -16 -1288 -21 -72 -2 -378 -39 -435 -53 -67 -15 -125 -40 -125 -53 0 -4
-17 -26 -38 -48 -37 -41 -38 -44 -51 -160 -9 -83 -15 -464 -22 -1269 -15
-1775 1 -3361 37 -3662 21 -177 87 -389 179 -573 60 -122 164 -290 178 -290 5
0 8 -3 4 -6 -10 -11 153 -205 238 -283 21 -20 51 -48 66 -62 43 -41 126 -109
133 -109 4 0 22 -15 41 -33 19 -19 55 -44 81 -57 25 -14 48 -30 51 -37 3 -7 9
-10 14 -7 5 3 9 1 9 -5 0 -6 41 -31 92 -56 50 -25 96 -49 102 -54 6 -5 49 -25
96 -46 47 -20 130 -59 186 -86 l101 -49 7 -1462 c4 -805 11 -2550 16 -3878 11
-2939 18 -3922 30 -4360 6 -184 10 -370 10 -412 l0 -76 87 -78 c201 -176 666
-538 960 -747 l122 -87 458 -10 c1417 -31 13892 -38 16252 -9 l914 11 172 123
c386 277 883 675 1194 957 l62 56 9 749 c5 411 14 2116 20 3788 5 1672 13
3086 16 3143 l6 102 369 0 369 0 0 1291 c0 1019 3 1293 13 1302 30 29 115 97
121 97 7 0 114 109 193 197 62 68 146 173 140 173 -3 0 7 13 22 29 14 15 37
49 50 75 13 25 28 46 33 46 5 0 7 4 4 9 -3 5 1 14 9 21 35 29 158 310 214 491
64 204 71 480 78 3029 l5 2186 -63 63 c-137 136 -196 157 -471 168 -93 3 -168
10 -168 15 0 4 -40 8 -90 8 l-90 0 0 520 0 520 -2999 0 -2999 0 -3 303 c-3
239 -7 307 -18 320 -7 10 -11 17 -8 17 8 0 -20 116 -53 215 -54 164 -185 366
-275 425 -14 9 -22 20 -18 25 5 4 3 5 -4 2 -6 -4 -20 4 -30 17 -21 26 -152
109 -190 121 -13 3 -23 10 -23 14 0 5 -26 18 -57 29 -189 69 -438 46 -496 -45
-9 -15 -28 -43 -42 -61 -13 -19 -27 -54 -31 -79 -6 -39 -2 -54 27 -111 44 -84
115 -136 244 -176 154 -47 269 -95 307 -126 31 -26 42 -46 67 -123 47 -149 54
-211 55 -507 0 -122 -3 -168 -18 -215 -20 -67 -47 -110 -79 -126 -20 -11 -20
-9 4 17 62 71 108 64 -452 63 l-504 0 -42 -64 c-24 -35 -43 -69 -43 -74 0 -5
-15 -22 -32 -36 -18 -15 -26 -23 -18 -19 8 4 -1 -8 -20 -27 -20 -18 -47 -48
-60 -64 -30 -37 -65 -62 -40 -29 16 22 -43 -28 -78 -66 -13 -14 -24 -23 -25
-22 -1 2 -14 -2 -29 -9 -15 -6 -25 -16 -22 -21 3 -5 2 -7 -3 -6 -15 4 -83 -23
-83 -33 0 -6 -4 -7 -10 -4 -5 3 -10 2 -10 -3 0 -20 -263 -110 -296 -102 -4 1
-10 -4 -15 -12 -13 -20 -286 -19 -299 2 -5 8 -10 12 -10 8 0 -4 -12 -3 -27 2
-16 5 -81 25 -146 45 -64 20 -124 43 -132 51 -20 20 -102 54 -111 46 -4 -4 -4
-2 -1 4 4 7 -13 20 -45 34 -29 12 -59 30 -66 39 -10 12 -12 13 -7 1 5 -11 3
-10 -7 2 -8 9 -40 28 -72 42 -56 25 -59 25 -87 9 -15 -9 -25 -21 -22 -26 3 -6
1 -7 -5 -3 -6 3 -24 -7 -40 -24 -17 -16 -33 -30 -37 -30 -15 0 -54 -38 -47
-45 4 -5 2 -5 -4 -2 -6 3 -27 -5 -47 -19 -20 -14 -37 -22 -37 -19 0 4 -7 0
-15 -8 -28 -29 -343 -116 -366 -101 -5 3 -9 0 -9 -5 0 -7 -47 -11 -135 -11
-88 0 -135 4 -135 11 0 5 -4 8 -9 5 -16 -10 -291 88 -291 104 0 4 -48 31 -107
60 -58 29 -113 58 -120 66 -14 13 -28 18 -46 15 -5 -1 -6 2 -3 7 3 5 -12 16
-34 25 -48 19 -73 9 -141 -53 -24 -22 -48 -40 -52 -40 -16 0 -56 -37 -49 -45
4 -3 2 -5 -3 -4 -16 5 -55 -11 -55 -23 0 -5 -7 -8 -15 -4 -8 3 -15 2 -15 -2 0
-15 -66 -40 -171 -65 -142 -34 -220 -48 -230 -41 -5 3 -9 0 -9 -5 0 -7 -42
-11 -120 -11 -78 0 -120 4 -120 11 0 5 -4 8 -9 5 -27 -17 -301 78 -301 104 0
6 -4 8 -10 5 -5 -3 -10 -2 -10 3 0 5 -38 28 -85 51 -47 24 -85 48 -85 54 0 6
-3 8 -6 5 -3 -4 -14 2 -24 12 -21 21 -80 40 -123 40 -34 0 -138 -36 -148 -51
-4 -6 -11 -9 -15 -6 -10 5 -36 -18 -28 -25 2 -3 -2 -5 -9 -5 -6 0 -51 -18 -99
-41 -49 -22 -88 -38 -88 -36 0 3 -7 -1 -15 -9 -18 -18 -132 -45 -247 -58 -96
-11 -230 -1 -331 26 -72 19 -262 111 -291 142 -11 12 -25 23 -30 23 -4 0 -29
18 -55 39 -26 22 -54 41 -62 43 -8 2 -21 17 -29 33 -8 17 -22 30 -30 30 -8 0
-15 7 -15 15 -1 8 -6 14 -13 12 -7 -1 -11 1 -10 5 2 5 -7 19 -19 33 -12 14
-29 34 -38 45 -9 11 -13 14 -9 6 5 -10 3 -12 -5 -7 -7 5 -10 11 -7 14 3 3 -5
20 -19 37 -13 18 -21 35 -18 39 4 3 -226 6 -511 6 l-516 0 -12 28 c-17 40 -23
478 -8 589 12 96 57 206 113 277 33 42 121 88 192 100 38 7 144 56 250 116 28
16 60 34 71 41 29 15 59 83 58 133 -1 59 -7 96 -17 96 -4 0 -6 4 -3 9 4 5 3
11 -1 13 -5 1 -20 20 -35 40 -39 52 -114 78 -237 83 -53 2 -121 0 -151 -5z
m-99 -1616 c58 -29 65 -41 12 -19 -50 21 -98 54 -113 79 -10 15 -4 13 20 -8
18 -15 55 -38 81 -52z m9234 -4 c3 -6 -1 -7 -9 -4 -18 7 -21 14 -7 14 6 0 13
-4 16 -10z m803 -749 c25 -42 54 -107 40 -91 -9 10 -79 140 -75 140 2 0 18
-22 35 -49z m-11688 -71 c-11 -22 -23 -40 -25 -40 -3 0 4 18 15 40 11 22 23
40 25 40 3 0 -4 -18 -15 -40z m2500 0 c6 -11 8 -20 6 -20 -3 0 -10 9 -16 20
-6 11 -8 20 -6 20 3 0 10 -9 16 -20z m3000 -14 c0 -2 -7 -7 -16 -10 -8 -3 -12
-2 -9 4 6 10 25 14 25 6z m-5547 -66 c-9 -16 -24 -30 -32 -30 -10 0 -5 10 14
30 16 17 30 30 32 30 2 0 -4 -13 -14 -30z m7752 20 c7 -12 -2 -12 -30 0 -19 8
-19 9 2 9 12 1 25 -3 28 -9z m-2899 -15 c27 -8 65 -15 84 -16 28 -1 30 -3 10
-6 -26 -5 -124 13 -150 28 -23 13 2 11 56 -6z m539 5 c-11 -5 -27 -9 -35 -9
-9 0 -8 4 5 9 11 5 27 9 35 9 9 0 8 -4 -5 -9z m985 -20 c20 -6 21 -8 5 -8 -11
0 -31 4 -45 8 -20 6 -21 8 -5 8 11 0 31 -4 45 -8z m403 3 c-7 -2 -19 -2 -25 0
-7 3 -2 5 12 5 14 0 19 -2 13 -5z m1044 1 c-3 -3 -12 -4 -19 -1 -8 3 -5 6 6 6
11 1 17 -2 13 -5z m4023 -22 c-7 -3 -19 3 -28 13 -16 15 -15 16 12 4 15 -7 23
-15 16 -17z m-5117 11 c-7 -2 -21 -2 -30 0 -10 3 -4 5 12 5 17 0 24 -2 18 -5z
m1150 0 c-7 -2 -21 -2 -30 0 -10 3 -4 5 12 5 17 0 24 -2 18 -5z m320 0 c-7 -2
-21 -2 -30 0 -10 3 -4 5 12 5 17 0 24 -2 18 -5z m-2003 -7233 c284 -70 498
-215 647 -438 106 -157 163 -326 184 -537 35 -371 -83 -721 -321 -948 -266
-255 -629 -351 -1060 -280 -186 30 -323 90 -464 202 -200 160 -343 408 -391
679 -19 111 -19 330 0 448 25 152 91 320 178 449 153 225 424 393 715 440 128
21 400 13 512 -15z"/>
</g>
</svg>
