<svg id="svg" version="1.1" width="400" height="346.82437644638725" viewBox="0 0 400 346.82437644638725" xmlns="http://www.w3.org/2000/svg" xmlns:xlink="http://www.w3.org/1999/xlink" ><g id="svgg"><path id="path0" d="M164.250 96.226 C 160.260 97.381,157.758 101.829,157.681 107.907 C 157.641 111.062,157.882 110.572,155.799 111.742 C 151.638 114.082,151.241 114.483,148.945 118.685 L 148.343 119.787 124.797 119.882 C 94.332 120.006,93.773 120.053,93.473 122.490 C 92.934 126.881,93.009 164.962,93.565 168.833 C 94.559 175.761,98.687 181.044,105.753 184.431 L 108.333 185.668 108.332 195.626 C 108.331 210.986,108.648 259.534,108.836 272.773 C 109.054 288.057,109.154 289.155,110.356 289.397 C 116.509 290.630,294.725 290.529,297.310 289.290 C 298.489 288.724,298.473 289.214,298.910 241.667 C 298.959 236.304,299.044 221.567,299.099 208.917 C 299.155 196.267,299.205 185.838,299.211 185.741 C 299.217 185.645,300.186 185.129,301.365 184.594 C 307.320 181.895,311.256 177.708,313.127 172.083 C 314.229 168.772,314.328 166.340,314.331 142.495 L 314.333 122.240 313.981 121.995 C 313.787 121.860,313.356 121.536,313.023 121.274 C 311.356 119.964,312.199 120.004,283.914 119.890 L 259.078 119.790 258.282 118.307 C 257.844 117.492,257.538 116.740,257.602 116.637 C 257.669 116.528,257.644 116.494,257.543 116.557 C 257.445 116.617,257.118 116.276,256.809 115.792 C 256.501 115.312,255.993 114.694,255.679 114.418 C 255.366 114.142,255.022 113.830,254.915 113.724 C 254.808 113.618,253.613 112.893,252.260 112.114 L 249.798 110.697 249.823 108.455 C 249.863 104.944,249.091 101.827,247.666 99.745 C 246.921 98.656,245.511 97.167,245.226 97.167 C 245.102 97.167,245.000 97.102,245.000 97.023 C 245.000 96.698,243.045 96.130,241.626 96.043 C 237.051 95.763,236.519 99.398,240.936 100.761 C 243.800 101.645,244.500 102.960,244.500 107.458 C 244.500 110.700,244.523 110.655,242.272 111.772 C 238.925 113.434,237.400 114.956,235.536 118.500 L 234.878 119.750 203.731 119.791 L 172.583 119.831 172.407 119.457 C 171.277 117.066,170.416 115.792,168.898 114.269 C 167.948 113.315,166.381 112.307,164.627 111.520 C 162.992 110.786,162.944 110.669,162.948 107.445 C 162.953 103.044,163.760 101.447,166.281 100.845 C 168.912 100.217,170.211 97.932,168.669 96.645 C 167.865 95.973,165.798 95.777,164.250 96.226 M262.083 121.002 C 301.880 121.189,312.471 121.348,312.779 121.764 C 313.357 122.546,313.529 166.098,312.968 169.760 C 312.037 175.837,307.302 181.569,301.277 183.913 C 299.112 184.755,298.467 185.154,298.300 185.750 C 297.977 186.906,297.848 199.364,297.755 238.250 C 297.644 285.163,297.584 288.141,296.736 288.845 C 295.547 289.831,111.555 289.802,110.580 288.815 C 109.854 288.080,109.691 277.957,109.670 232.250 C 109.655 202.809,109.518 188.468,109.229 186.190 C 109.098 185.159,108.869 184.964,106.917 184.225 C 100.354 181.742,95.340 175.995,94.506 170.000 C 93.767 164.683,93.877 122.390,94.632 121.635 C 95.249 121.018,189.628 120.661,262.083 121.002 M99.161 127.458 C 99.157 128.260,99.087 138.022,99.005 149.150 L 98.855 169.383 99.614 170.900 C 101.938 175.544,104.863 178.522,107.985 179.421 C 111.193 180.345,119.180 180.471,158.708 180.222 L 176.333 180.112 176.333 178.339 C 176.333 173.991,176.777 171.015,177.506 170.470 C 178.293 169.883,183.069 169.759,205.000 169.754 C 225.945 169.750,229.254 169.824,229.833 170.309 C 230.357 170.747,230.640 172.318,230.919 176.325 C 231.062 178.384,231.201 180.089,231.227 180.116 C 231.385 180.273,287.341 180.346,292.255 180.195 C 297.605 180.031,297.990 179.998,299.039 179.617 C 302.485 178.367,305.171 175.821,307.394 171.698 L 308.500 169.646 308.500 163.948 C 308.500 160.814,308.450 150.994,308.389 142.125 L 308.278 126.000 203.723 126.000 L 99.167 126.000 99.161 127.458 M181.668 176.792 C 181.673 182.940,182.025 200.202,182.179 201.818 C 182.880 209.162,189.921 217.012,197.774 219.203 C 199.809 219.771,207.219 219.765,209.417 219.194 C 215.399 217.639,221.512 212.283,224.138 206.295 C 225.304 203.638,225.325 203.373,225.588 188.583 C 225.717 181.342,225.824 175.285,225.828 175.125 C 225.833 174.849,224.673 174.833,203.750 174.833 L 181.667 174.833 181.668 176.792 M207.000 187.754 C 216.968 190.838,216.728 205.516,206.667 208.109 C 198.541 210.203,191.643 203.585,193.392 195.373 C 194.656 189.435,200.984 185.892,207.000 187.754 M149.487 270.841 C 133.765 271.039,130.014 271.197,129.627 271.675 C 128.969 272.487,129.135 273.311,130.084 273.932 C 131.380 274.781,275.314 274.955,276.949 274.110 C 277.925 273.605,278.314 272.492,277.773 271.753 C 277.463 271.329,275.517 271.226,263.500 270.991 C 251.699 270.761,164.913 270.646,149.487 270.841 " stroke="none" fill="#bbbbbb" fill-rule="evenodd"></path><path id="path1" d="M194.917 4.496 C 190.870 4.631,187.555 4.851,184.667 5.178 C 182.052 5.473,179.312 5.824,178.250 5.998 C 177.700 6.089,176.500 6.280,175.583 6.423 C 174.066 6.660,173.364 6.783,170.250 7.356 C 168.481 7.682,162.464 9.014,160.917 9.422 C 160.092 9.640,159.004 9.927,158.500 10.060 C 127.062 18.363,98.515 36.384,75.432 62.500 C 64.870 74.451,54.742 90.546,48.114 105.917 C 42.274 119.461,38.935 131.271,36.335 147.583 C 34.358 159.981,34.117 179.246,35.771 192.667 C 42.725 249.104,77.561 297.888,128.965 323.174 C 146.954 332.023,164.571 336.995,185.917 339.248 C 187.292 339.393,189.054 339.582,189.833 339.668 C 196.318 340.385,212.725 340.090,221.583 339.096 C 267.488 333.947,310.123 309.354,337.516 272.221 C 352.493 251.919,363.359 227.540,367.438 205.090 C 371.156 184.624,371.516 164.331,368.493 145.583 C 366.084 130.646,361.728 115.948,356.103 103.779 C 355.771 103.062,355.500 102.436,355.500 102.387 C 355.500 102.278,351.173 93.636,350.717 92.833 C 350.534 92.513,349.987 91.537,349.501 90.667 C 340.204 74.010,327.427 58.294,312.917 45.668 C 311.725 44.631,310.525 43.587,310.250 43.347 C 289.631 25.354,260.160 11.650,231.583 6.768 C 226.944 5.975,225.522 5.770,220.583 5.180 C 215.461 4.569,202.848 4.232,194.917 4.496 M217.583 13.742 C 221.592 14.019,223.973 14.301,227.667 14.934 C 271.108 22.384,307.008 44.777,332.788 80.504 C 345.107 97.576,354.450 119.539,358.984 142.083 C 361.146 152.836,361.400 156.000,361.400 172.167 C 361.400 186.697,361.252 189.308,360.002 196.750 C 357.770 210.049,353.978 223.107,348.871 235.083 C 334.951 267.723,309.755 295.249,278.167 312.324 C 276.603 313.169,269.232 316.833,269.095 316.833 C 269.056 316.833,268.465 317.092,267.781 317.408 C 258.085 321.886,244.180 326.288,232.500 328.575 C 226.106 329.828,222.943 330.225,215.583 330.701 C 210.911 331.003,188.378 331.002,186.167 330.700 C 176.696 329.407,171.167 328.373,162.667 326.308 C 155.774 324.633,144.568 320.703,137.667 317.541 C 137.071 317.268,136.208 316.877,135.750 316.672 C 134.330 316.038,127.406 312.547,125.958 311.735 C 120.448 308.645,117.428 306.773,111.583 302.823 C 76.194 278.909,50.880 237.749,44.843 194.307 C 42.856 180.004,43.072 158.993,45.334 146.500 C 47.978 131.897,52.136 118.144,57.259 107.053 C 57.575 106.369,57.833 105.781,57.833 105.747 C 57.833 105.713,58.506 104.303,59.327 102.614 C 68.352 84.063,80.807 67.614,96.504 53.516 C 116.360 35.683,140.103 23.372,166.667 17.136 C 167.813 16.867,169.050 16.585,169.417 16.509 C 183.089 13.677,187.111 13.328,204.833 13.434 C 210.686 13.469,215.221 13.578,217.583 13.742 M201.917 187.489 C 194.678 188.675,190.986 196.397,194.420 203.172 C 198.019 210.275,209.731 210.102,213.164 202.896 C 217.028 194.785,210.656 186.057,201.917 187.489 " stroke="none" fill="#f4b63a" fill-rule="evenodd"></path><path id="path2" d="M187.250 4.007 C 185.077 4.150,182.310 4.436,180.917 4.662 C 180.367 4.752,179.167 4.940,178.250 5.080 C 176.540 5.341,175.154 5.579,173.833 5.840 C 173.421 5.921,172.221 6.142,171.167 6.332 C 170.112 6.521,168.950 6.746,168.583 6.831 C 168.217 6.916,167.429 7.096,166.833 7.231 C 164.081 7.854,163.119 8.083,161.333 8.539 C 159.025 9.129,157.780 9.458,157.000 9.684 C 156.679 9.776,156.117 9.925,155.750 10.013 C 155.383 10.102,154.896 10.241,154.667 10.323 C 154.438 10.404,153.462 10.709,152.500 11.000 C 151.537 11.291,150.375 11.672,149.917 11.847 C 149.458 12.022,148.838 12.212,148.538 12.270 C 148.238 12.329,147.953 12.442,147.903 12.522 C 147.854 12.601,147.702 12.667,147.567 12.667 C 147.341 12.667,142.694 14.316,141.917 14.672 C 141.733 14.756,140.683 15.166,139.583 15.582 C 138.483 15.998,137.283 16.484,136.917 16.662 C 136.550 16.839,135.762 17.183,135.167 17.427 C 134.571 17.670,133.596 18.094,133.000 18.368 C 132.404 18.643,131.429 19.092,130.833 19.366 C 128.574 20.406,121.465 24.024,121.085 24.326 C 120.992 24.400,120.504 24.682,120.000 24.953 C 118.228 25.904,117.389 26.398,114.250 28.337 C 111.102 30.281,108.406 32.010,108.079 32.295 C 107.985 32.376,107.685 32.584,107.412 32.755 C 106.154 33.547,100.647 37.523,99.228 38.664 C 98.941 38.894,98.491 39.246,98.228 39.444 C 97.965 39.643,97.585 39.943,97.384 40.111 C 97.183 40.279,96.776 40.604,96.480 40.833 C 96.184 41.063,95.860 41.325,95.761 41.417 C 95.662 41.508,94.644 42.404,93.499 43.408 C 92.354 44.412,91.297 45.349,91.150 45.491 C 91.003 45.634,89.842 46.725,88.570 47.917 C 84.858 51.394,78.257 58.079,75.636 61.015 C 75.424 61.253,74.729 62.027,74.092 62.736 C 73.455 63.445,72.801 64.188,72.639 64.388 C 72.476 64.587,72.239 64.862,72.111 65.000 C 71.600 65.550,68.989 68.847,67.823 70.417 C 67.142 71.333,66.545 72.121,66.497 72.167 C 66.449 72.212,66.267 72.473,66.093 72.746 C 65.919 73.018,65.712 73.318,65.632 73.412 C 64.585 74.651,59.310 82.631,57.588 85.583 C 57.053 86.500,56.402 87.594,56.141 88.015 C 55.880 88.435,55.667 88.830,55.667 88.893 C 55.667 88.955,55.471 89.317,55.231 89.696 C 54.062 91.548,48.333 102.948,48.333 103.422 C 48.333 103.477,48.101 104.023,47.817 104.636 C 47.533 105.248,47.237 105.900,47.159 106.083 C 47.082 106.267,46.872 106.754,46.692 107.167 C 46.513 107.579,46.125 108.554,45.830 109.333 C 45.534 110.112,45.199 110.975,45.084 111.250 C 44.738 112.076,43.532 115.358,43.245 116.250 C 43.098 116.708,42.803 117.571,42.589 118.167 C 42.375 118.763,41.958 120.037,41.664 121.000 C 41.369 121.962,41.021 123.081,40.890 123.486 C 40.455 124.831,39.198 129.395,38.843 130.917 C 38.471 132.515,38.443 132.628,38.090 133.917 C 37.965 134.375,37.780 135.162,37.679 135.667 C 37.578 136.171,37.392 137.071,37.267 137.667 C 36.573 140.958,36.474 141.459,35.983 144.167 C 35.473 146.979,35.015 150.028,34.669 152.917 C 34.162 157.142,34.104 159.136,34.105 172.167 C 34.106 185.141,34.184 187.798,34.668 191.500 C 35.413 197.194,35.823 199.688,36.766 204.250 C 36.898 204.892,37.082 205.829,37.173 206.333 C 37.265 206.838,37.412 207.550,37.500 207.917 C 37.588 208.283,37.887 209.558,38.165 210.750 C 38.443 211.942,38.745 213.179,38.835 213.500 C 38.925 213.821,39.146 214.646,39.324 215.333 C 39.964 217.794,40.382 219.278,40.826 220.667 C 40.987 221.171,41.246 222.033,41.402 222.583 C 41.557 223.133,41.748 223.733,41.826 223.917 C 41.904 224.100,42.203 225.000,42.491 225.917 C 42.778 226.833,43.080 227.733,43.162 227.917 C 43.243 228.100,43.470 228.737,43.665 229.333 C 44.070 230.565,45.417 234.165,45.755 234.917 C 46.017 235.501,46.318 236.221,47.113 238.167 C 47.432 238.946,47.911 240.057,48.179 240.637 C 48.447 241.216,48.667 241.720,48.667 241.757 C 48.667 242.067,52.650 250.043,54.366 253.167 C 54.592 253.579,55.014 254.348,55.304 254.876 C 55.593 255.403,56.018 256.133,56.248 256.497 C 56.478 256.862,56.667 257.198,56.667 257.244 C 56.667 257.359,60.707 263.895,60.843 264.000 C 60.902 264.046,61.159 264.421,61.415 264.833 C 62.136 265.998,63.403 267.908,63.515 268.000 C 63.571 268.046,63.827 268.421,64.083 268.833 C 64.340 269.246,64.595 269.621,64.650 269.667 C 64.705 269.712,65.009 270.125,65.325 270.583 C 65.641 271.042,65.948 271.454,66.008 271.500 C 66.068 271.546,66.200 271.741,66.301 271.934 C 66.403 272.127,66.733 272.587,67.035 272.956 C 67.336 273.326,67.733 273.837,67.917 274.093 C 68.557 274.988,72.363 279.753,72.767 280.167 C 72.991 280.396,73.341 280.780,73.546 281.021 C 75.564 283.400,78.817 286.816,83.760 291.749 C 88.064 296.043,88.968 296.911,91.655 299.333 C 95.620 302.907,95.833 303.085,99.833 306.144 C 101.529 307.441,103.067 308.618,103.250 308.759 C 103.433 308.900,104.333 309.518,105.250 310.132 C 106.167 310.747,106.954 311.293,107.000 311.346 C 107.300 311.691,116.673 317.667,116.915 317.667 C 116.959 317.667,117.502 317.978,118.122 318.358 C 118.742 318.738,119.737 319.312,120.333 319.633 C 120.929 319.955,121.829 320.444,122.333 320.720 C 123.879 321.567,130.177 324.712,131.672 325.384 C 132.448 325.733,133.209 326.086,133.362 326.169 C 133.516 326.252,134.078 326.504,134.612 326.728 C 135.146 326.952,136.221 327.409,137.000 327.744 C 137.779 328.079,138.904 328.537,139.500 328.762 C 140.096 328.986,140.733 329.235,140.917 329.315 C 141.100 329.395,141.587 329.592,142.000 329.753 C 142.412 329.914,142.986 330.148,143.275 330.273 C 143.564 330.398,143.905 330.500,144.034 330.500 C 144.162 330.500,144.338 330.560,144.425 330.633 C 144.512 330.706,144.996 330.900,145.500 331.064 C 146.004 331.228,146.567 331.425,146.750 331.504 C 147.282 331.730,150.925 332.927,152.833 333.502 C 153.796 333.793,155.033 334.171,155.583 334.342 C 156.133 334.514,157.483 334.889,158.583 335.175 C 159.683 335.461,161.146 335.842,161.833 336.022 C 162.521 336.201,163.608 336.466,164.250 336.609 C 164.892 336.753,165.679 336.930,166.000 337.003 C 167.360 337.315,169.172 337.691,170.417 337.921 C 171.150 338.056,172.088 338.240,172.500 338.329 C 172.912 338.418,174.000 338.611,174.917 338.758 C 175.833 338.905,177.033 339.098,177.583 339.188 C 180.355 339.641,184.330 340.129,188.583 340.541 C 196.101 341.267,219.137 340.498,227.000 339.258 C 231.486 338.551,234.591 337.995,235.833 337.677 C 236.154 337.595,236.754 337.476,237.167 337.413 C 237.579 337.350,238.329 337.191,238.833 337.059 C 239.338 336.928,240.237 336.715,240.833 336.588 C 242.095 336.317,243.271 336.028,245.583 335.420 C 246.500 335.179,247.546 334.907,247.908 334.816 C 248.270 334.725,249.170 334.464,249.908 334.238 C 250.646 334.011,251.475 333.759,251.750 333.678 C 252.777 333.377,258.096 331.648,258.417 331.512 C 258.600 331.434,259.425 331.127,260.250 330.831 C 261.075 330.534,261.986 330.188,262.275 330.062 C 262.564 329.936,262.905 329.833,263.034 329.833 C 263.162 329.833,263.338 329.767,263.425 329.687 C 263.512 329.606,264.330 329.264,265.242 328.926 C 266.702 328.385,267.543 328.042,268.750 327.498 C 268.933 327.415,270.021 326.936,271.167 326.433 C 274.077 325.155,273.800 325.287,278.062 323.156 C 282.142 321.117,284.030 320.139,284.167 319.996 C 284.212 319.948,284.737 319.653,285.333 319.341 C 285.929 319.028,286.807 318.524,287.284 318.220 C 287.761 317.915,288.194 317.667,288.247 317.667 C 288.472 317.667,297.428 311.966,298.250 311.300 C 298.342 311.225,299.167 310.640,300.083 309.999 C 301.000 309.359,301.934 308.703,302.158 308.542 C 302.590 308.233,305.908 305.731,306.333 305.393 C 306.471 305.284,307.408 304.540,308.417 303.740 C 309.425 302.939,310.325 302.202,310.417 302.101 C 310.508 301.999,310.921 301.625,311.333 301.268 C 316.814 296.532,327.953 285.398,331.604 281.007 C 331.868 280.690,332.271 280.236,332.500 279.999 C 332.729 279.761,333.104 279.323,333.333 279.025 C 333.563 278.726,333.900 278.311,334.083 278.101 C 334.267 277.891,334.642 277.429,334.917 277.073 C 335.192 276.717,335.717 276.049,336.085 275.588 C 336.452 275.127,337.277 274.037,337.917 273.167 C 338.558 272.296,339.143 271.508,339.218 271.417 C 339.293 271.325,339.986 270.350,340.757 269.250 C 341.529 268.150,342.278 267.089,342.423 266.893 C 343.080 266.003,348.171 257.875,348.725 256.833 C 348.896 256.512,349.170 256.025,349.334 255.750 C 349.914 254.781,351.102 252.606,352.338 250.250 C 353.778 247.505,353.826 247.407,356.039 242.667 C 357.412 239.725,357.248 240.099,358.446 237.167 C 358.765 236.387,359.129 235.525,359.257 235.250 C 359.746 234.195,361.056 230.645,361.996 227.833 C 362.256 227.054,362.581 226.117,362.718 225.750 C 362.856 225.383,363.209 224.296,363.504 223.333 C 363.798 222.371,364.100 221.396,364.174 221.167 C 364.248 220.938,364.468 220.188,364.662 219.500 C 364.856 218.813,365.130 217.875,365.271 217.417 C 365.567 216.451,366.732 211.920,367.092 210.333 C 367.603 208.082,368.183 205.384,368.347 204.500 C 368.440 203.996,368.662 202.871,368.840 202.000 C 369.018 201.129,369.239 199.929,369.332 199.333 C 369.594 197.640,369.998 195.015,370.164 193.917 C 370.247 193.367,370.395 192.129,370.494 191.167 C 370.592 190.204,370.750 188.667,370.844 187.750 C 371.543 180.928,371.092 156.211,370.164 150.417 C 370.061 149.775,369.873 148.575,369.746 147.750 C 369.216 144.293,368.571 140.677,368.171 138.917 C 368.088 138.550,367.895 137.650,367.743 136.917 C 367.591 136.183,367.405 135.396,367.329 135.167 C 367.254 134.938,367.144 134.450,367.086 134.083 C 367.028 133.717,366.909 133.192,366.822 132.917 C 366.684 132.477,366.526 131.852,365.816 128.917 C 365.727 128.550,365.499 127.725,365.309 127.083 C 365.119 126.442,364.866 125.579,364.747 125.167 C 363.245 119.944,359.491 109.164,358.976 108.592 C 358.897 108.505,358.833 108.332,358.833 108.208 C 358.833 107.957,358.530 107.233,357.259 104.455 C 356.933 103.742,356.667 103.124,356.667 103.080 C 356.667 102.941,355.671 100.842,353.980 97.417 C 352.076 93.561,350.960 91.464,348.701 87.500 C 347.319 85.073,343.501 78.985,343.161 78.667 C 343.112 78.621,342.813 78.171,342.495 77.667 C 342.025 76.920,338.064 71.325,337.501 70.611 C 337.416 70.504,336.432 69.254,335.314 67.833 C 334.196 66.412,333.198 65.175,333.095 65.083 C 332.993 64.992,332.761 64.724,332.579 64.489 C 332.398 64.254,331.725 63.473,331.083 62.753 C 325.923 56.969,317.862 48.907,312.498 44.167 C 311.720 43.479,311.046 42.878,311.000 42.831 C 310.907 42.735,308.603 40.785,308.080 40.358 C 307.894 40.207,307.294 39.746,306.746 39.334 C 306.198 38.921,305.712 38.540,305.667 38.487 C 305.428 38.208,299.024 33.573,297.754 32.761 C 297.482 32.586,297.182 32.377,297.088 32.296 C 296.283 31.602,285.551 25.000,285.227 25.000 C 285.190 25.000,284.880 24.825,284.538 24.611 C 282.944 23.613,272.805 18.500,272.422 18.500 C 272.384 18.500,271.707 18.200,270.917 17.833 C 270.127 17.467,269.442 17.167,269.396 17.167 C 269.350 17.167,268.886 16.970,268.364 16.730 C 267.843 16.490,266.554 15.963,265.500 15.559 C 264.446 15.155,263.433 14.760,263.250 14.680 C 263.067 14.601,262.054 14.222,261.000 13.837 C 259.946 13.453,258.933 13.077,258.750 13.002 C 257.882 12.645,251.040 10.468,249.583 10.086 C 249.125 9.965,248.300 9.739,247.750 9.582 C 246.316 9.174,245.703 9.009,244.667 8.750 C 244.162 8.624,243.450 8.441,243.083 8.342 C 240.801 7.730,235.972 6.688,232.500 6.059 C 231.721 5.917,230.746 5.736,230.333 5.656 C 229.921 5.576,228.871 5.398,228.000 5.261 C 227.129 5.123,225.929 4.931,225.333 4.833 C 223.536 4.537,220.053 4.158,217.667 4.000 C 215.039 3.825,189.945 3.831,187.250 4.007 M215.333 4.755 C 218.958 4.993,219.876 5.082,224.000 5.600 C 255.371 9.535,287.734 23.699,310.250 43.347 C 310.525 43.587,311.725 44.631,312.917 45.668 C 327.427 58.294,340.204 74.010,349.501 90.667 C 349.987 91.537,350.534 92.513,350.717 92.833 C 351.173 93.636,355.500 102.278,355.500 102.387 C 355.500 102.436,355.771 103.062,356.103 103.779 C 356.434 104.497,357.191 106.246,357.784 107.667 C 370.424 137.948,373.675 170.760,367.438 205.090 C 363.359 227.540,352.493 251.919,337.516 272.221 C 310.123 309.354,267.488 333.947,221.583 339.096 C 212.725 340.090,196.318 340.385,189.833 339.668 C 189.054 339.582,187.292 339.393,185.917 339.248 C 164.571 336.995,146.954 332.023,128.965 323.174 C 81.580 299.865,48.289 256.786,37.763 205.156 C 34.224 187.796,33.645 164.457,36.335 147.583 C 38.935 131.271,42.274 119.461,48.114 105.917 C 54.742 90.546,64.870 74.451,75.432 62.500 C 98.515 36.384,127.062 18.363,158.500 10.060 C 159.004 9.927,160.092 9.640,160.917 9.422 C 162.464 9.014,168.481 7.682,170.250 7.356 C 173.364 6.783,174.066 6.660,175.583 6.423 C 176.500 6.280,177.700 6.089,178.250 5.998 C 180.501 5.628,185.425 5.064,188.583 4.814 C 194.903 4.313,208.158 4.284,215.333 4.755 M193.833 13.437 C 184.783 13.706,180.113 14.293,169.417 16.509 C 143.987 21.775,118.257 34.520,98.750 51.512 C 81.894 66.195,68.765 83.214,59.327 102.614 C 58.506 104.303,57.833 105.713,57.833 105.747 C 57.833 105.781,57.575 106.369,57.259 107.053 C 52.136 118.144,47.978 131.897,45.334 146.500 C 43.466 156.812,42.897 177.564,44.170 188.890 C 47.840 221.547,60.469 250.889,81.479 275.583 C 89.749 285.303,101.822 296.227,111.583 302.823 C 117.428 306.773,120.448 308.645,125.958 311.735 C 127.406 312.547,134.330 316.038,135.750 316.672 C 136.208 316.877,137.071 317.268,137.667 317.541 C 144.568 320.703,155.774 324.633,162.667 326.308 C 171.167 328.373,176.696 329.407,186.167 330.700 C 192.575 331.576,219.984 330.768,227.500 329.482 C 241.743 327.046,256.475 322.630,267.781 317.408 C 268.465 317.092,269.056 316.833,269.095 316.833 C 269.134 316.833,270.835 316.011,272.874 315.007 C 317.542 293.006,348.798 252.278,358.831 203.000 C 361.144 191.639,361.400 188.568,361.400 172.167 C 361.400 156.000,361.146 152.836,358.984 142.083 C 354.450 119.539,345.107 97.576,332.788 80.504 C 307.008 44.777,271.108 22.384,227.667 14.934 C 221.015 13.793,216.612 13.504,204.833 13.434 C 199.838 13.404,194.887 13.405,193.833 13.437 M214.000 14.342 C 219.990 14.684,224.466 15.225,229.750 16.246 C 230.483 16.387,231.683 16.614,232.417 16.749 C 233.150 16.885,234.050 17.063,234.417 17.147 C 234.783 17.230,235.646 17.418,236.333 17.564 C 239.070 18.145,241.682 18.792,244.500 19.586 C 244.912 19.702,245.700 19.920,246.250 20.071 C 246.800 20.222,247.700 20.485,248.250 20.655 C 248.800 20.826,249.813 21.129,250.500 21.329 C 251.188 21.529,252.035 21.800,252.383 21.932 C 252.732 22.063,253.894 22.462,254.967 22.818 C 258.166 23.880,264.425 26.312,266.583 27.333 C 266.950 27.506,267.625 27.812,268.083 28.013 C 270.061 28.879,271.236 29.434,273.667 30.652 C 277.040 32.343,280.128 33.995,281.372 34.776 C 281.714 34.991,282.032 35.167,282.079 35.167 C 282.186 35.167,288.633 39.127,288.894 39.353 C 288.998 39.443,289.796 39.983,290.667 40.552 C 291.537 41.121,292.459 41.736,292.714 41.918 C 293.212 42.274,294.310 43.080,294.583 43.291 C 294.675 43.362,294.973 43.563,295.246 43.738 C 295.518 43.913,295.818 44.120,295.912 44.197 C 296.006 44.274,296.683 44.793,297.417 45.350 C 298.150 45.907,298.963 46.525,299.223 46.723 C 299.734 47.112,300.877 48.024,301.417 48.472 C 301.601 48.625,302.087 49.012,302.496 49.333 C 302.906 49.654,303.469 50.116,303.746 50.360 C 304.023 50.604,304.662 51.157,305.167 51.589 C 306.140 52.424,307.850 53.928,309.235 55.167 C 310.678 56.458,318.522 64.340,320.016 66.000 C 322.287 68.524,322.822 69.132,323.808 70.312 C 324.143 70.713,324.556 71.201,324.727 71.396 C 324.898 71.590,325.236 72.012,325.477 72.333 C 325.719 72.654,326.055 73.066,326.225 73.250 C 326.394 73.433,326.878 74.033,327.300 74.583 C 327.722 75.133,328.112 75.621,328.167 75.667 C 328.222 75.712,328.788 76.460,329.425 77.327 C 330.860 79.282,332.280 81.196,332.459 81.417 C 332.533 81.508,333.433 82.858,334.460 84.417 C 335.486 85.975,336.388 87.325,336.463 87.417 C 336.539 87.508,336.652 87.696,336.716 87.833 C 336.879 88.187,337.214 88.697,337.458 88.963 C 337.573 89.088,337.667 89.298,337.667 89.429 C 337.667 89.560,337.733 89.667,337.814 89.667 C 337.895 89.667,338.011 89.798,338.071 89.958 C 338.278 90.506,338.579 91.000,338.706 91.000 C 338.776 91.000,338.833 91.087,338.833 91.194 C 338.833 91.301,339.171 91.930,339.583 92.592 C 339.996 93.254,340.333 93.879,340.333 93.981 C 340.333 94.083,340.400 94.167,340.481 94.167 C 340.562 94.167,340.670 94.298,340.723 94.458 C 340.775 94.619,341.230 95.500,341.734 96.417 C 343.541 99.701,347.333 107.477,347.333 107.897 C 347.333 108.009,347.401 108.171,347.484 108.258 C 347.567 108.345,347.985 109.279,348.412 110.333 C 348.839 111.388,349.289 112.475,349.414 112.750 C 349.721 113.430,350.943 116.651,351.438 118.083 C 352.322 120.645,353.313 123.649,353.664 124.833 C 353.868 125.521,354.173 126.533,354.343 127.083 C 354.658 128.105,355.047 129.458,355.327 130.500 C 355.414 130.821,355.599 131.496,355.738 132.000 C 355.878 132.504,356.221 133.892,356.500 135.083 C 356.779 136.275,357.082 137.550,357.173 137.917 C 357.265 138.283,357.421 138.996,357.520 139.500 C 357.619 140.004,357.769 140.717,357.853 141.083 C 358.023 141.827,358.369 143.657,358.766 145.917 C 358.911 146.742,359.089 147.754,359.163 148.167 C 360.828 157.509,361.260 171.749,360.326 186.500 C 360.157 189.175,360.009 190.574,359.596 193.417 C 359.261 195.720,358.184 201.800,357.854 203.250 C 357.770 203.617,357.575 204.517,357.420 205.250 C 357.031 207.091,356.683 208.641,356.503 209.333 C 356.420 209.654,356.240 210.367,356.103 210.917 C 355.966 211.467,355.774 212.238,355.675 212.631 C 355.460 213.486,354.665 216.292,354.177 217.917 C 353.984 218.558,353.705 219.496,353.557 220.000 C 353.408 220.504,353.225 221.067,353.150 221.250 C 353.075 221.433,352.778 222.333,352.491 223.250 C 352.203 224.167,351.907 225.067,351.832 225.250 C 351.757 225.433,351.119 227.121,350.413 229.000 C 349.707 230.879,349.031 232.642,348.911 232.917 C 348.790 233.192,348.456 233.979,348.167 234.667 C 347.241 236.868,346.675 238.123,345.459 240.667 C 343.485 244.794,341.350 248.863,339.970 251.128 C 339.620 251.702,339.333 252.207,339.333 252.250 C 339.333 252.468,333.812 261.127,332.956 262.250 C 332.886 262.342,332.606 262.717,332.333 263.083 C 332.061 263.450,331.780 263.825,331.709 263.917 C 331.638 264.008,331.437 264.306,331.262 264.579 C 331.087 264.852,330.880 265.152,330.803 265.246 C 330.726 265.340,330.439 265.717,330.167 266.083 C 329.894 266.450,329.612 266.825,329.539 266.917 C 329.467 267.008,329.036 267.571,328.581 268.167 C 328.126 268.762,327.661 269.362,327.548 269.500 C 327.435 269.637,326.946 270.244,326.463 270.849 C 325.352 272.236,324.275 273.558,324.167 273.667 C 324.121 273.712,323.633 274.275,323.083 274.916 C 321.544 276.711,321.118 277.195,320.667 277.664 C 320.438 277.901,319.582 278.830,318.765 279.727 C 316.136 282.612,310.910 287.733,307.675 290.594 C 307.267 290.955,306.747 291.429,306.519 291.648 C 306.292 291.867,305.726 292.356,305.261 292.736 C 304.797 293.115,304.229 293.587,304.000 293.784 C 303.430 294.274,300.520 296.648,299.820 297.194 C 299.506 297.438,299.070 297.794,298.849 297.986 C 298.629 298.177,298.403 298.333,298.348 298.333 C 298.292 298.333,297.947 298.594,297.582 298.913 C 297.216 299.233,296.866 299.495,296.804 299.497 C 296.741 299.499,296.591 299.596,296.470 299.713 C 296.349 299.831,295.650 300.355,294.917 300.879 C 294.183 301.402,293.508 301.888,293.416 301.957 C 293.323 302.027,292.761 302.417,292.166 302.825 C 291.570 303.232,291.046 303.609,291.000 303.663 C 290.927 303.748,289.932 304.386,285.949 306.902 C 284.549 307.786,281.456 309.610,280.333 310.213 C 279.829 310.484,279.342 310.765,279.250 310.838 C 278.714 311.262,270.409 315.412,268.083 316.418 C 267.717 316.577,267.042 316.880,266.583 317.092 C 266.125 317.304,265.337 317.636,264.833 317.830 C 264.329 318.023,263.692 318.284,263.417 318.409 C 263.142 318.534,262.279 318.877,261.500 319.172 C 260.721 319.466,259.858 319.804,259.583 319.922 C 259.308 320.040,258.408 320.377,257.583 320.671 C 256.758 320.965,255.596 321.380,255.000 321.593 C 254.404 321.806,253.167 322.219,252.250 322.510 C 251.333 322.801,250.171 323.177,249.667 323.346 C 249.162 323.514,248.450 323.724,248.083 323.811 C 247.717 323.898,246.613 324.200,245.631 324.482 C 244.649 324.765,243.562 325.067,243.215 325.155 C 242.867 325.243,242.283 325.400,241.917 325.504 C 241.550 325.608,240.800 325.795,240.250 325.920 C 239.700 326.045,238.387 326.347,237.333 326.593 C 235.369 327.050,234.148 327.303,231.667 327.767 C 230.887 327.912,229.912 328.097,229.500 328.177 C 217.804 330.452,196.798 331.084,185.083 329.514 C 179.801 328.807,177.731 328.503,175.917 328.170 C 175.367 328.070,174.317 327.882,173.583 327.753 C 171.508 327.388,169.921 327.070,167.750 326.587 C 166.650 326.342,165.300 326.041,164.750 325.919 C 163.821 325.713,161.068 324.996,159.917 324.660 C 159.642 324.580,159.004 324.404,158.500 324.268 C 153.946 323.041,144.933 319.909,141.854 318.483 C 141.453 318.297,140.741 317.994,140.271 317.810 C 139.801 317.625,138.967 317.265,138.417 317.009 C 137.867 316.753,136.704 316.216,135.833 315.816 C 134.106 315.024,128.613 312.263,126.750 311.251 C 125.325 310.477,122.479 308.845,122.250 308.671 C 122.158 308.601,121.633 308.298,121.083 307.997 C 120.533 307.696,119.446 307.037,118.667 306.532 C 115.336 304.374,112.401 302.416,112.195 302.214 C 112.074 302.095,111.811 301.911,111.612 301.805 C 111.413 301.699,110.987 301.413,110.667 301.170 C 109.719 300.451,108.561 299.602,108.163 299.333 C 107.959 299.196,107.708 299.008,107.605 298.917 C 107.501 298.825,106.967 298.413,106.417 298.000 C 105.867 297.588,105.379 297.211,105.333 297.163 C 105.287 297.114,104.912 296.816,104.500 296.500 C 104.087 296.184,103.712 295.884,103.667 295.833 C 103.621 295.783,103.246 295.482,102.833 295.165 C 102.421 294.848,102.000 294.512,101.897 294.419 C 101.795 294.326,101.532 294.100,101.312 293.917 C 101.093 293.733,100.466 293.208,99.918 292.750 C 99.370 292.292,98.808 291.790,98.669 291.635 C 98.530 291.479,98.079 291.077,97.667 290.741 C 94.940 288.518,86.963 280.559,84.313 277.417 C 84.004 277.050,83.712 276.712,83.665 276.667 C 83.549 276.555,81.806 274.523,81.376 274.000 C 81.188 273.771,80.592 273.058,80.052 272.417 C 79.512 271.775,78.662 270.725,78.164 270.083 C 77.666 269.442,77.215 268.879,77.163 268.833 C 77.110 268.787,76.885 268.487,76.663 268.167 C 76.441 267.846,76.196 267.508,76.119 267.417 C 73.692 264.529,66.983 254.367,64.730 250.167 C 64.557 249.846,64.379 249.546,64.333 249.500 C 64.252 249.419,64.114 249.171,63.165 247.417 C 61.816 244.923,61.395 244.122,60.753 242.833 C 59.903 241.127,58.889 239.001,58.168 237.417 C 56.899 234.626,56.433 233.547,55.831 232.000 C 55.528 231.221,55.217 230.512,55.140 230.425 C 55.063 230.338,55.000 230.162,55.000 230.034 C 55.000 229.905,54.898 229.564,54.773 229.275 C 54.648 228.986,54.414 228.412,54.253 228.000 C 54.092 227.588,53.900 227.100,53.827 226.917 C 53.637 226.442,52.430 222.981,51.937 221.500 C 51.111 219.016,49.548 213.526,48.996 211.167 C 48.814 210.387,48.592 209.487,48.504 209.167 C 48.416 208.846,48.258 208.171,48.153 207.667 C 48.049 207.162,47.905 206.487,47.836 206.167 C 47.766 205.846,47.551 204.796,47.359 203.833 C 47.166 202.871,46.933 201.746,46.841 201.333 C 46.625 200.369,46.400 199.048,45.663 194.417 C 43.994 183.926,43.994 160.868,45.662 150.083 C 46.173 146.778,46.751 143.424,46.998 142.333 C 47.091 141.921,47.276 141.002,47.409 140.292 C 47.542 139.581,47.761 138.531,47.896 137.958 C 48.031 137.385,48.306 136.167,48.508 135.250 C 48.710 134.333,48.984 133.171,49.118 132.667 C 49.252 132.162,49.506 131.188,49.682 130.500 C 50.014 129.206,50.433 127.724,50.671 127.000 C 50.747 126.771,50.972 126.021,51.171 125.333 C 51.371 124.646,51.831 123.221,52.194 122.167 C 52.557 121.112,53.041 119.688,53.270 119.000 C 53.672 117.794,53.899 117.201,54.165 116.661 C 54.234 116.521,54.344 116.165,54.408 115.871 C 54.473 115.578,54.595 115.294,54.679 115.242 C 54.764 115.190,54.833 115.035,54.833 114.898 C 54.833 114.761,54.984 114.318,55.167 113.915 C 55.351 113.512,55.756 112.560,56.067 111.799 C 56.551 110.614,56.977 109.622,57.659 108.083 C 59.117 104.798,61.832 99.366,63.657 96.083 C 63.963 95.533,64.386 94.769,64.598 94.385 C 64.809 94.001,65.286 93.205,65.658 92.617 C 66.029 92.029,66.333 91.462,66.333 91.357 C 66.333 91.252,66.408 91.167,66.500 91.167 C 66.592 91.167,66.667 91.091,66.667 90.998 C 66.667 90.721,71.102 83.758,71.844 82.870 C 71.942 82.753,72.332 82.191,72.710 81.620 C 73.089 81.050,73.458 80.508,73.531 80.417 C 73.833 80.037,74.940 78.558,75.169 78.227 C 75.388 77.911,77.092 75.662,77.614 75.000 C 79.843 72.172,80.743 71.053,80.900 70.917 C 81.005 70.825,81.248 70.547,81.439 70.298 C 81.817 69.808,82.955 68.498,85.164 66.010 C 86.935 64.014,94.442 56.492,96.323 54.828 C 97.096 54.143,97.851 53.471,97.999 53.333 C 98.635 52.745,100.550 51.093,100.965 50.774 C 101.213 50.584,101.454 50.388,101.500 50.339 C 101.737 50.086,103.720 48.464,104.667 47.750 C 105.263 47.300,105.787 46.891,105.833 46.841 C 105.900 46.768,107.122 45.836,108.083 45.126 C 108.175 45.058,108.625 44.719,109.083 44.373 C 110.254 43.489,113.470 41.249,115.250 40.078 C 116.075 39.535,116.775 39.033,116.806 38.962 C 116.836 38.891,116.962 38.833,117.085 38.833 C 117.209 38.833,117.409 38.736,117.530 38.617 C 117.853 38.299,120.801 36.500,120.998 36.500 C 121.091 36.500,121.167 36.425,121.167 36.333 C 121.167 36.242,121.252 36.167,121.357 36.167 C 121.462 36.167,122.005 35.878,122.565 35.526 C 123.125 35.174,124.009 34.650,124.529 34.362 C 125.048 34.074,125.836 33.638,126.279 33.393 C 128.670 32.072,137.222 27.852,138.500 27.363 C 138.729 27.275,139.367 27.002,139.917 26.756 C 140.467 26.510,141.142 26.209,141.417 26.088 C 142.255 25.718,146.682 23.989,147.833 23.581 C 151.374 22.328,153.002 21.769,153.667 21.578 C 154.079 21.460,155.054 21.162,155.833 20.917 C 158.842 19.968,164.013 18.591,167.083 17.920 C 169.619 17.367,170.586 17.151,171.250 16.993 C 171.617 16.906,172.404 16.753,173.000 16.653 C 173.596 16.554,174.683 16.364,175.417 16.230 C 180.741 15.263,183.750 14.868,188.750 14.481 C 194.242 14.056,207.701 13.982,214.000 14.342 M209.750 22.002 C 177.512 22.803,175.241 23.029,172.753 25.698 C 170.112 28.530,169.265 32.372,170.604 35.442 C 170.730 35.731,170.833 36.016,170.833 36.075 C 170.833 36.239,172.004 38.061,172.231 38.250 C 172.578 38.539,173.664 40.036,173.605 40.145 C 173.575 40.203,172.914 41.563,172.136 43.167 L 170.723 46.083 170.853 69.250 C 171.031 100.996,171.190 106.192,172.076 109.109 C 172.498 110.500,174.423 112.806,176.000 113.810 C 176.229 113.956,176.454 114.118,176.500 114.171 C 176.759 114.465,178.870 115.197,179.872 115.339 C 181.953 115.634,183.524 115.324,185.942 114.141 C 188.135 113.069,188.529 113.027,189.304 113.785 C 189.425 113.903,189.631 114.000,189.762 114.000 C 189.893 114.000,190.001 114.056,190.001 114.125 C 190.002 114.194,190.171 114.331,190.376 114.430 C 190.582 114.529,191.200 114.867,191.750 115.180 L 192.750 115.750 195.333 115.750 C 198.375 115.750,200.130 115.299,201.573 114.146 C 201.671 114.069,201.986 113.816,202.274 113.586 C 202.941 113.052,203.005 113.057,204.139 113.716 C 204.658 114.018,205.758 114.599,206.583 115.008 L 208.083 115.750 210.500 115.750 C 213.317 115.750,214.349 115.483,216.151 114.290 C 216.738 113.901,217.378 113.479,217.574 113.352 C 217.937 113.116,218.285 113.263,221.078 114.830 C 224.890 116.969,229.855 115.974,233.313 112.377 C 235.426 110.179,235.695 109.140,235.994 102.000 C 236.493 90.090,236.451 90.530,237.058 90.878 C 237.304 91.019,238.311 91.083,240.250 91.083 L 243.083 91.083 245.333 90.221 C 246.571 89.747,247.998 89.243,248.505 89.102 C 249.515 88.821,250.136 88.275,250.515 87.333 C 250.914 86.342,250.857 63.986,250.451 62.462 C 250.107 61.167,248.317 57.565,247.820 57.167 C 247.763 57.121,247.507 56.746,247.251 56.333 C 246.994 55.921,246.589 55.348,246.351 55.061 C 246.112 54.774,245.729 54.292,245.500 53.990 C 245.271 53.688,245.007 53.361,244.914 53.262 C 244.821 53.164,244.484 52.748,244.164 52.339 C 242.494 50.197,237.901 45.496,234.243 42.184 C 233.697 41.689,232.826 40.885,232.308 40.396 L 231.365 39.507 231.912 38.878 C 233.552 36.995,234.020 36.380,234.404 35.604 C 237.046 30.262,234.690 24.373,229.083 22.306 C 227.942 21.885,219.695 21.755,209.750 22.002 M165.126 95.819 C 164.508 95.978,163.946 96.165,163.877 96.234 C 163.807 96.304,163.976 96.298,164.250 96.222 C 165.533 95.866,167.904 96.054,168.572 96.564 C 169.117 96.979,169.176 96.996,169.010 96.686 C 168.431 95.604,167.108 95.308,165.126 95.819 M239.417 95.800 C 238.492 96.378,238.347 96.720,239.187 96.339 C 239.985 95.976,241.744 95.891,242.895 96.158 C 243.780 96.363,243.432 96.067,242.500 95.821 C 241.132 95.461,239.971 95.453,239.417 95.800 M162.500 96.859 C 160.351 98.085,158.472 100.680,157.992 103.083 C 157.627 104.913,157.664 105.269,158.065 103.777 C 158.900 100.665,160.813 97.864,162.792 96.855 C 163.181 96.656,163.500 96.457,163.500 96.413 C 163.500 96.291,163.481 96.300,162.500 96.859 M169.280 97.878 C 169.411 99.164,168.167 100.395,166.281 100.845 C 165.255 101.090,164.257 101.681,163.986 102.206 C 163.799 102.566,163.812 102.564,164.270 102.156 C 164.794 101.691,165.216 101.487,166.743 100.964 C 167.920 100.561,168.868 99.931,169.238 99.308 C 169.517 98.836,169.598 97.414,169.354 97.263 C 169.274 97.213,169.241 97.490,169.280 97.878 M237.850 98.141 C 237.799 99.310,238.874 100.296,241.053 101.083 C 241.770 101.342,242.653 101.768,243.015 102.030 C 243.472 102.361,243.615 102.413,243.483 102.201 C 243.154 101.675,242.262 101.170,240.936 100.761 C 239.086 100.191,238.293 99.515,237.988 98.250 C 237.886 97.829,237.865 97.812,237.850 98.141 M247.153 99.055 C 248.169 100.409,248.509 101.054,248.969 102.500 C 249.487 104.127,249.509 104.159,249.419 103.148 C 249.283 101.623,248.357 99.877,246.998 98.583 L 246.298 97.917 247.153 99.055 M162.885 107.417 C 162.886 107.967,162.917 108.172,162.954 107.872 C 162.991 107.572,162.990 107.122,162.952 106.872 C 162.914 106.622,162.884 106.867,162.885 107.417 M244.346 109.529 C 244.324 109.999,243.552 110.767,242.628 111.239 C 242.145 111.486,241.525 111.873,241.250 112.100 C 240.901 112.388,241.259 112.262,242.443 111.681 C 244.159 110.839,244.740 110.192,244.443 109.457 C 244.392 109.330,244.355 109.358,244.346 109.529 M163.005 109.940 C 162.997 110.542,163.515 110.979,165.250 111.830 C 166.992 112.685,166.874 112.438,165.008 111.324 C 163.692 110.538,163.449 110.349,163.201 109.917 C 163.013 109.589,163.010 109.589,163.005 109.940 M157.083 110.718 C 156.900 110.827,156.712 110.960,156.667 111.012 C 156.621 111.065,156.460 111.153,156.309 111.209 C 155.829 111.385,153.017 113.172,152.888 113.381 C 152.820 113.493,152.949 113.456,153.174 113.299 C 153.399 113.143,154.466 112.515,155.544 111.904 C 157.328 110.893,157.919 110.483,157.552 110.510 C 157.477 110.515,157.267 110.609,157.083 110.718 M249.667 110.566 C 249.667 110.602,250.623 111.176,251.792 111.842 C 252.960 112.507,254.104 113.166,254.333 113.307 C 254.563 113.447,254.675 113.478,254.583 113.377 C 254.293 113.057,252.092 111.667,251.875 111.667 C 251.760 111.667,251.667 111.592,251.667 111.500 C 251.667 111.408,251.572 111.333,251.455 111.333 C 251.339 111.333,250.968 111.146,250.631 110.917 C 250.077 110.540,249.667 110.391,249.667 110.566 M257.120 116.289 C 257.467 116.829,258.050 117.847,258.417 118.550 C 258.872 119.425,259.179 119.830,259.385 119.832 C 259.580 119.833,259.644 119.760,259.565 119.625 C 259.437 119.403,258.236 117.599,257.351 116.296 C 256.568 115.145,256.383 115.140,257.120 116.289 M150.205 116.125 C 149.936 116.469,149.388 117.275,148.988 117.917 C 148.588 118.558,148.164 119.182,148.047 119.304 C 147.763 119.596,147.776 119.833,148.075 119.833 C 148.208 119.833,148.594 119.327,148.932 118.708 C 149.270 118.090,149.833 117.115,150.184 116.542 C 150.909 115.356,150.916 115.217,150.205 116.125 M236.509 116.442 C 236.134 116.873,235.339 118.358,234.987 119.284 C 234.719 119.989,234.905 119.709,235.674 118.250 C 236.061 117.517,236.523 116.710,236.700 116.458 C 237.110 115.876,237.009 115.867,236.509 116.442 M171.455 117.652 C 171.801 118.286,172.111 118.778,172.144 118.744 C 172.217 118.672,171.018 116.500,170.905 116.500 C 170.862 116.500,171.110 117.019,171.455 117.652 M108.375 119.956 C 108.810 119.990,109.523 119.990,109.958 119.956 C 110.394 119.922,110.037 119.893,109.167 119.893 C 108.296 119.893,107.940 119.922,108.375 119.956 M96.500 120.168 C 95.300 120.302,94.671 120.510,94.370 120.873 C 94.212 121.063,94.363 121.049,95.079 120.807 C 95.866 120.541,97.340 120.330,99.917 120.112 C 100.283 120.081,99.908 120.054,99.083 120.052 C 98.258 120.049,97.096 120.102,96.500 120.168 M309.208 120.115 C 309.369 120.157,309.631 120.157,309.792 120.115 C 309.952 120.073,309.821 120.039,309.500 120.039 C 309.179 120.039,309.048 120.073,309.208 120.115 M310.917 120.330 C 311.841 120.498,312.312 120.714,313.065 121.315 C 313.867 121.957,313.949 121.964,313.514 121.353 C 313.058 120.712,311.851 120.161,310.960 120.188 L 310.250 120.208 310.917 120.330 M93.236 127.000 C 93.236 128.787,93.261 129.519,93.291 128.625 C 93.321 127.731,93.321 126.269,93.291 125.375 C 93.261 124.481,93.236 125.212,93.236 127.000 M93.353 169.217 C 93.332 171.166,93.269 170.943,94.688 173.956 C 95.371 175.406,96.222 176.818,97.071 177.909 C 97.763 178.799,99.378 180.511,99.453 180.436 C 99.487 180.402,99.132 179.972,98.665 179.479 C 96.057 176.729,94.086 172.642,93.581 168.938 L 93.373 167.417 93.353 169.217 M313.781 169.481 C 312.997 175.621,308.140 181.526,301.343 184.603 C 300.152 185.142,299.249 185.608,299.337 185.638 C 299.720 185.770,304.107 183.526,305.692 182.386 C 308.182 180.597,309.918 178.696,311.651 175.863 C 312.118 175.100,312.500 174.444,312.500 174.405 C 312.500 174.365,312.840 173.645,313.256 172.803 C 313.997 171.303,314.011 171.244,313.964 169.845 L 313.917 168.417 313.781 169.481 M99.667 180.556 C 99.667 181.303,103.588 183.749,107.542 185.470 C 109.250 186.214,108.200 185.604,105.740 184.425 C 103.135 183.176,101.453 182.127,100.292 181.025 C 99.948 180.699,99.667 180.488,99.667 180.556 M299.226 187.250 C 299.225 188.075,299.254 188.434,299.288 188.047 C 299.323 187.660,299.324 186.985,299.289 186.547 C 299.255 186.109,299.226 186.425,299.226 187.250 M214.224 197.917 C 214.224 198.650,214.254 198.929,214.289 198.537 C 214.324 198.145,214.324 197.545,214.288 197.204 C 214.252 196.863,214.223 197.183,214.224 197.917 M299.066 204.917 C 299.066 206.200,299.092 206.703,299.124 206.034 C 299.156 205.366,299.155 204.316,299.123 203.701 C 299.091 203.086,299.065 203.633,299.066 204.917 M203.377 208.453 C 203.631 208.491,204.006 208.490,204.211 208.451 C 204.416 208.411,204.208 208.380,203.750 208.381 C 203.292 208.382,203.124 208.415,203.377 208.453 M108.400 219.333 C 108.400 220.662,108.425 221.206,108.457 220.542 C 108.489 219.877,108.489 218.790,108.457 218.125 C 108.425 217.460,108.400 218.004,108.400 219.333 M298.828 247.958 C 298.816 257.462,298.487 282.683,298.344 285.083 C 298.163 288.130,297.953 288.982,297.306 289.291 C 296.729 289.568,288.255 289.813,273.333 289.983 L 262.083 290.112 279.611 290.139 L 297.139 290.167 297.636 289.539 C 298.407 288.566,298.511 287.846,298.674 282.358 C 298.867 275.851,299.091 244.167,298.944 244.167 C 298.883 244.167,298.831 245.873,298.828 247.958 M108.539 259.833 C 108.479 282.393,108.697 287.880,109.712 289.375 L 110.250 290.166 127.833 290.139 L 145.417 290.112 134.167 289.983 C 122.572 289.851,111.112 289.565,110.274 289.388 C 109.622 289.251,109.381 288.599,109.174 286.412 C 108.987 284.444,108.672 265.369,108.616 252.667 C 108.596 248.221,108.562 251.446,108.539 259.833 " stroke="none" fill="#fbdbab" fill-rule="evenodd"></path><path id="path3" d="M133.417 121.678 C 103.882 121.846,95.660 122.057,95.342 122.651 C 94.609 124.019,94.754 167.086,95.502 170.667 C 96.627 176.046,101.109 180.790,107.655 183.530 L 109.917 184.477 110.026 197.113 C 110.087 204.063,110.218 225.725,110.317 245.250 C 110.417 264.775,110.547 282.447,110.606 284.522 L 110.713 288.293 125.065 288.413 C 144.278 288.574,296.435 288.454,296.611 288.278 C 296.856 288.033,296.962 277.640,297.152 235.167 C 297.255 212.296,297.384 191.539,297.439 189.040 L 297.538 184.498 298.061 184.257 C 298.348 184.124,299.183 183.781,299.917 183.494 C 305.894 181.154,310.988 175.734,311.924 170.715 C 312.454 167.874,312.727 124.455,312.224 122.922 C 312.099 122.541,311.931 122.401,311.489 122.314 C 308.091 121.642,204.571 121.272,133.417 121.678 M309.333 147.670 L 309.333 170.507 308.561 172.045 C 306.744 175.663,304.349 178.170,300.962 179.997 C 298.338 181.412,295.826 181.500,257.989 181.500 L 230.360 181.500 230.182 180.708 C 230.005 179.918,229.744 176.658,229.563 172.958 L 229.467 170.999 203.692 171.041 L 177.917 171.083 177.794 174.583 C 177.685 177.672,177.339 180.920,177.072 181.351 C 176.777 181.829,112.709 181.430,109.362 180.930 C 105.576 180.364,101.893 177.436,99.150 172.812 L 98.000 170.873 98.000 147.853 L 98.000 124.833 203.667 124.833 L 309.333 124.833 309.333 147.670 M226.500 189.086 L 226.500 204.171 225.332 206.502 C 215.678 225.774,192.041 226.007,182.306 206.926 L 180.950 204.268 180.868 190.255 C 180.823 182.548,180.840 175.737,180.906 175.121 L 181.027 174.000 203.763 174.000 L 226.500 174.000 226.500 189.086 M275.333 269.991 C 276.479 270.109,277.659 270.305,277.955 270.426 C 279.676 271.132,279.509 274.131,277.695 275.069 C 276.584 275.643,148.794 275.916,133.492 275.377 C 128.942 275.216,128.335 274.894,128.334 272.639 C 128.332 270.178,128.897 270.012,137.833 269.835 C 149.129 269.611,273.009 269.752,275.333 269.991 " stroke="none" fill="#644c2c" fill-rule="evenodd"></path><path id="path4" d="M139.333 121.017 C 111.525 121.144,94.893 121.374,94.632 121.635 C 93.877 122.390,93.767 164.683,94.506 170.000 C 95.340 175.995,100.354 181.742,106.917 184.225 C 108.869 184.964,109.098 185.159,109.229 186.190 C 109.518 188.468,109.655 202.809,109.670 232.250 C 109.691 277.957,109.854 288.080,110.580 288.815 C 111.555 289.802,295.547 289.831,296.736 288.845 C 297.584 288.141,297.644 285.163,297.755 238.250 C 297.848 199.364,297.977 186.906,298.300 185.750 C 298.467 185.154,299.112 184.755,301.277 183.913 C 307.302 181.569,312.037 175.837,312.968 169.760 C 313.529 166.098,313.357 122.546,312.779 121.764 C 312.220 121.008,224.149 120.629,139.333 121.017 M271.333 121.664 C 294.595 121.814,310.245 122.068,311.489 122.314 C 311.931 122.401,312.099 122.541,312.224 122.922 C 312.727 124.455,312.454 167.874,311.924 170.715 C 310.988 175.734,305.894 181.154,299.917 183.494 C 299.183 183.781,298.348 184.124,298.061 184.257 L 297.538 184.498 297.439 189.040 C 297.384 191.539,297.255 212.296,297.152 235.167 C 296.962 277.640,296.856 288.033,296.611 288.278 C 296.435 288.454,144.278 288.574,125.065 288.413 L 110.713 288.293 110.606 284.522 C 110.547 282.447,110.417 264.775,110.317 245.250 C 110.218 225.725,110.087 204.063,110.026 197.113 L 109.917 184.477 107.655 183.530 C 101.109 180.790,96.627 176.046,95.502 170.667 C 94.754 167.086,94.609 124.019,95.342 122.651 C 95.568 122.227,95.994 122.196,104.500 121.987 C 121.649 121.564,225.065 121.363,271.333 121.664 M98.000 147.853 L 98.000 170.873 99.150 172.812 C 101.893 177.436,105.576 180.364,109.362 180.930 C 112.709 181.430,176.777 181.829,177.072 181.351 C 177.339 180.920,177.685 177.672,177.794 174.583 L 177.917 171.083 203.692 171.041 L 229.467 170.999 229.563 172.958 C 229.744 176.658,230.005 179.918,230.182 180.708 L 230.360 181.500 257.989 181.500 C 295.826 181.500,298.338 181.412,300.962 179.997 C 304.349 178.170,306.744 175.663,308.561 172.045 L 309.333 170.507 309.333 147.670 L 309.333 124.833 203.667 124.833 L 98.000 124.833 98.000 147.853 M308.389 142.125 C 308.450 150.994,308.500 160.814,308.500 163.948 L 308.500 169.646 307.394 171.698 C 305.171 175.821,302.485 178.367,299.039 179.617 C 297.990 179.998,297.605 180.031,292.255 180.195 C 287.341 180.346,231.385 180.273,231.227 180.116 C 231.201 180.089,231.062 178.384,230.919 176.325 C 230.640 172.318,230.357 170.747,229.833 170.309 C 229.254 169.824,225.945 169.750,205.000 169.754 C 183.069 169.759,178.293 169.883,177.506 170.470 C 176.777 171.015,176.333 173.991,176.333 178.339 L 176.333 180.112 158.708 180.222 C 119.180 180.471,111.193 180.345,107.985 179.421 C 104.863 178.522,101.938 175.544,99.614 170.900 L 98.855 169.383 99.005 149.150 C 99.087 138.022,99.157 128.260,99.161 127.458 L 99.167 126.000 203.723 126.000 L 308.278 126.000 308.389 142.125 M180.906 175.121 C 180.840 175.737,180.823 182.548,180.868 190.255 L 180.950 204.268 182.306 206.926 C 187.254 216.623,196.033 221.817,205.859 220.859 C 214.520 220.014,220.931 215.288,225.332 206.502 L 226.500 204.171 226.500 189.086 L 226.500 174.000 203.763 174.000 L 181.027 174.000 180.906 175.121 M225.828 175.125 C 225.824 175.285,225.717 181.342,225.588 188.583 C 225.325 203.373,225.304 203.638,224.138 206.295 C 221.512 212.283,215.399 217.639,209.417 219.194 C 207.219 219.765,199.809 219.771,197.774 219.203 C 189.921 217.012,182.880 209.162,182.179 201.818 C 182.025 200.202,181.673 182.940,181.668 176.792 L 181.667 174.833 203.750 174.833 C 224.673 174.833,225.833 174.849,225.828 175.125 M137.833 269.835 C 128.897 270.012,128.332 270.178,128.334 272.639 C 128.335 274.894,128.942 275.216,133.492 275.377 C 148.794 275.916,276.584 275.643,277.695 275.069 C 279.509 274.131,279.676 271.132,277.955 270.426 C 276.398 269.787,275.455 269.778,208.500 269.747 C 172.887 269.731,141.087 269.770,137.833 269.835 M263.500 270.991 C 275.517 271.226,277.463 271.329,277.773 271.753 C 278.314 272.492,277.925 273.605,276.949 274.110 C 275.314 274.955,131.380 274.781,130.084 273.932 C 129.135 273.311,128.969 272.487,129.627 271.675 C 130.014 271.197,133.765 271.039,149.487 270.841 C 164.913 270.646,251.699 270.761,263.500 270.991 " stroke="none" fill="#847463" fill-rule="evenodd"></path></g></svg>